<svg width="20" height="20" viewBox="0 0 20 20" fill="none" xmlns="http://www.w3.org/2000/svg">
<path d="M0.75 10.875C0.75 10.2537 1.25368 9.75 1.875 9.75H4.125C4.74632 9.75 5.25 10.2537 5.25 10.875V17.625C5.25 18.2463 4.74632 18.75 4.125 18.75H1.875C1.25368 18.75 0.75 18.2463 0.75 17.625V10.875Z" stroke="#00B04E" stroke-width="1.5" stroke-linecap="round" stroke-linejoin="round"/>
<path d="M7.5 6.375C7.5 5.75368 8.00368 5.25 8.625 5.25H10.875C11.4963 5.25 12 5.75368 12 6.375V17.625C12 18.2463 11.4963 18.75 10.875 18.75H8.625C8.00368 18.75 7.5 18.2463 7.5 17.625V6.375Z" stroke="#00B04E" stroke-width="1.5" stroke-linecap="round" stroke-linejoin="round"/>
<path d="M14.25 1.875C14.25 1.25368 14.7537 0.75 15.375 0.75H17.625C18.2463 0.75 18.75 1.25368 18.75 1.875V17.625C18.75 18.2463 18.2463 18.75 17.625 18.75H15.375C14.7537 18.75 14.25 18.2463 14.25 17.625V1.875Z" stroke="#00B04E" stroke-width="1.5" stroke-linecap="round" stroke-linejoin="round"/>
</svg>
