<svg width="21" height="16" viewBox="0 0 21 16" fill="none" xmlns="http://www.w3.org/2000/svg">
<path d="M7.84835 10.2959C6.38388 8.83148 6.38388 6.45711 7.84835 4.99264M13.1517 4.99264C14.6161 6.45711 14.6161 8.83148 13.1517 10.2959M5.72703 12.4173C3.09099 9.78122 3.09099 5.50736 5.72703 2.87132M15.273 2.87132C17.909 5.50736 17.909 9.78122 15.273 12.4173M3.60571 14.5386C-0.201903 10.731 -0.201903 4.55761 3.60571 0.75M17.3943 0.75C21.2019 4.55761 21.2019 10.731 17.3943 14.5386M10.5 7.64429H10.5075V7.65179H10.5V7.64429ZM10.875 7.64429C10.875 7.8514 10.7071 8.01929 10.5 8.01929C10.2929 8.01929 10.125 7.8514 10.125 7.64429C10.125 7.43718 10.2929 7.26929 10.5 7.26929C10.7071 7.26929 10.875 7.43718 10.875 7.64429Z" stroke="#00B04E" stroke-width="1.5" stroke-linecap="round" stroke-linejoin="round"/>
</svg>
