<svg width="18" height="18" viewBox="0 0 18 18" fill="none" xmlns="http://www.w3.org/2000/svg">
<path d="M10.5 13.875H13.875M13.875 13.875H17.25M13.875 13.875V10.5M13.875 13.875V17.25M3 7.5H5.25C6.49264 7.5 7.5 6.49264 7.5 5.25V3C7.5 1.75736 6.49264 0.75 5.25 0.75H3C1.75736 0.75 0.75 1.75736 0.75 3V5.25C0.75 6.49264 1.75736 7.5 3 7.5ZM3 17.25H5.25C6.49264 17.25 7.5 16.2426 7.5 15V12.75C7.5 11.5074 6.49264 10.5 5.25 10.5H3C1.75736 10.5 0.75 11.5074 0.75 12.75V15C0.75 16.2426 1.75736 17.25 3 17.25ZM12.75 7.5H15C16.2426 7.5 17.25 6.49264 17.25 5.25V3C17.25 1.75736 16.2426 0.75 15 0.75H12.75C11.5074 0.75 10.5 1.75736 10.5 3V5.25C10.5 6.49264 11.5074 7.5 12.75 7.5Z" stroke="#00B04E" stroke-width="1.5" stroke-linecap="round" stroke-linejoin="round"/>
</svg>
