<svg width="48" height="45" viewBox="0 0 48 45" fill="none" xmlns="http://www.w3.org/2000/svg">
<g opacity="0.1">
<path d="M6.5013 60.0833C1.77491 60.0833 -2.6921 59.1749 -6.89974 57.3581C-11.1074 55.5413 -14.7813 53.0629 -17.9214 49.9227C-21.0616 46.7825 -23.5401 43.1086 -25.3569 38.901C-27.1736 34.6934 -28.082 30.2263 -28.082 25.5C-28.082 20.7159 -27.1736 16.2351 -25.3569 12.0574C-23.5401 7.87975 -21.0616 4.21968 -17.9214 1.07721C-14.7813 -2.06526 -11.1074 -4.54374 -6.89974 -6.35821C-2.6921 -8.17268 1.77491 -9.08107 6.5013 -9.08337C11.2853 -9.08337 15.7673 -8.17498 19.9473 -6.35821C24.1273 -4.54143 27.7862 -2.06296 30.9241 1.07721C34.0619 4.21738 36.5404 7.87745 38.3595 12.0574C40.1786 16.2374 41.0869 20.7182 41.0846 25.5C41.0846 30.2263 40.1762 34.6934 38.3595 38.901C36.5427 43.1086 34.0642 46.7837 30.9241 49.9262C27.7839 53.0686 24.1238 55.5471 19.9438 57.3616C15.7639 59.1761 11.283 60.0833 6.5013 60.0833ZM6.5013 52.9937C7.99991 50.9187 9.29679 48.7573 10.3919 46.5093C11.4871 44.2614 12.3805 41.8694 13.0721 39.3333H-0.0695305C0.622135 41.8694 1.51554 44.2614 2.61068 46.5093C3.70581 48.7573 5.00269 50.9187 6.5013 52.9937ZM-2.49037 51.6104C-3.52787 49.7083 -4.4351 47.7336 -5.21207 45.6862C-5.98905 43.6389 -6.63806 41.5213 -7.15911 39.3333H-17.3612C-15.6897 42.2152 -13.5997 44.7225 -11.0912 46.8552C-8.5828 48.9878 -5.71584 50.5729 -2.49037 51.6104ZM15.493 51.6104C18.7207 50.5729 21.5889 48.9878 24.0973 46.8552C26.6057 44.7225 28.6946 42.2152 30.3638 39.3333H20.1617C19.643 41.5236 18.9951 43.6424 18.2181 45.6897C17.4412 47.737 16.5328 49.7106 15.493 51.6104ZM-20.3008 32.4166H-8.54245C-8.71536 31.2638 -8.84448 30.1261 -8.92978 29.0033C-9.01509 27.8804 -9.05889 26.7127 -9.0612 25.5C-9.0635 24.2872 -9.0197 23.1206 -8.92978 22.0001C-8.83986 20.8796 -8.71075 19.7407 -8.54245 18.5833H-20.3008C-20.589 19.7361 -20.8045 20.875 -20.9475 22.0001C-21.0904 23.1252 -21.1631 24.2918 -21.1654 25.5C-21.1677 26.7081 -21.095 27.8758 -20.9475 29.0033C-20.7999 30.1307 -20.5844 31.2685 -20.3008 32.4166ZM-1.62578 32.4166H14.6284C14.8013 31.2638 14.9316 30.1261 15.0192 29.0033C15.1068 27.8804 15.1494 26.7127 15.1471 25.5C15.1448 24.2872 15.101 23.1206 15.0157 22.0001C14.9304 20.8796 14.8013 19.7407 14.6284 18.5833H-1.62578C-1.7987 19.7361 -1.92781 20.875 -2.01311 22.0001C-2.09842 23.1252 -2.14223 24.2918 -2.14453 25.5C-2.14684 26.7081 -2.10303 27.8758 -2.01311 29.0033C-1.9232 30.1307 -1.79409 31.2685 -1.62578 32.4166ZM21.5451 32.4166H33.3034C33.5916 31.2638 33.8083 30.1261 33.9535 29.0033C34.0988 27.8804 34.1703 26.7127 34.168 25.5C34.1657 24.2872 34.0942 23.1206 33.9535 22.0001C33.8129 20.8796 33.5962 19.7407 33.3034 18.5833H21.5451C21.718 19.7361 21.8482 20.875 21.9358 22.0001C22.0235 23.1252 22.0661 24.2918 22.0638 25.5C22.0615 26.7081 22.0177 27.8758 21.9324 29.0033C21.8471 30.1307 21.718 31.2685 21.5451 32.4166ZM20.1617 11.6666H30.3638C28.6923 8.78468 26.6034 6.27739 24.0973 4.14475C21.5912 2.01211 18.7231 0.427042 15.493 -0.610458C16.5305 1.29163 17.4389 3.26633 18.2181 5.31367C18.9974 7.361 19.6453 9.47865 20.1617 11.6666ZM-0.0695305 11.6666H13.0721C12.3805 9.13051 11.4871 6.7385 10.3919 4.49058C9.29679 2.24267 7.99991 0.0812101 6.5013 -1.99379C5.00269 0.0812101 3.70581 2.24267 2.61068 4.49058C1.51554 6.7385 0.622135 9.13051 -0.0695305 11.6666ZM-17.3612 11.6666H-7.15911C-6.64036 9.47635 -5.99135 7.35754 -5.21207 5.31021C-4.4328 3.26288 -3.52556 1.28932 -2.49037 -0.610458C-5.71814 0.427042 -8.58625 2.01211 -11.0947 4.14475C-13.6031 6.27739 -15.692 8.78468 -17.3612 11.6666Z" fill="white"/>
</g>
</svg>
