<svg width="90" height="34" viewBox="0 0 90 34" fill="none" xmlns="http://www.w3.org/2000/svg">
<path d="M49.534 29H48.484V19.2H52.152C54 19.2 55.372 20.558 55.372 22.266C55.372 23.974 54 25.332 52.152 25.332H49.534V29ZM49.534 20.194V24.338H52.152C53.426 24.338 54.322 23.456 54.322 22.266C54.322 21.09 53.426 20.194 52.152 20.194H49.534ZM59.0319 22.14C60.5859 22.14 61.6639 23.218 61.6639 24.772V29H60.7539V27.922H60.7399C60.4319 28.454 59.5779 29.14 58.4019 29.14C57.0579 29.14 56.1479 28.23 56.1479 27.222C56.1479 26.144 56.9179 25.36 58.2899 25.136L60.7259 24.73V24.716C60.7259 23.708 60.0259 23.036 59.0319 23.036C58.1639 23.036 57.5899 23.512 57.1559 23.974L56.5259 23.372C57.0019 22.798 57.8559 22.14 59.0319 22.14ZM58.4999 28.272C59.7599 28.272 60.7259 27.32 60.7259 26.032V25.556L58.5139 25.92C57.5339 26.088 57.0999 26.564 57.0999 27.166C57.0999 27.754 57.6319 28.272 58.4999 28.272ZM66.2686 27.838L68.2426 22.28H69.2366L66.3386 30.05C65.8626 31.352 65.2186 31.94 64.1686 31.94C63.8326 31.94 63.5246 31.842 63.3706 31.772V30.848C63.5106 30.932 63.7906 31.03 64.0846 31.03C64.6866 31.03 65.0926 30.666 65.3446 30.022L65.7506 29.014L62.7826 22.28H63.8186L66.2406 27.838H66.2686Z" fill="white"/>
<path d="M51.992 14.21C48.94 14.21 46.672 11.928 46.672 9.1C46.672 6.258 48.94 3.99 51.992 3.99C54.078 3.99 55.478 5.04 56.192 5.88L54.778 7.14C54.204 6.566 53.392 5.908 51.992 5.908C50.2 5.908 48.8 7.308 48.8 9.1C48.8 10.878 50.2 12.278 51.992 12.278C53.028 12.278 53.896 11.816 54.232 11.48V10.318H52.23V8.68H56.29V12.306C55.66 13.118 54.036 14.21 51.992 14.21ZM59.9716 14H58.0816V4.2H59.9716V14ZM65.087 14.14C63.029 14.14 61.447 12.558 61.447 10.598C61.447 8.638 63.029 7.07 65.087 7.07C67.159 7.07 68.727 8.638 68.727 10.598C68.727 12.558 67.159 14.14 65.087 14.14ZM65.087 12.39C66.039 12.39 66.809 11.62 66.809 10.598C66.809 9.59 66.039 8.82 65.087 8.82C64.149 8.82 63.379 9.59 63.379 10.598C63.379 11.62 64.149 12.39 65.087 12.39ZM74.2968 14.14C73.1768 14.14 72.4068 13.51 72.1268 13.034H72.0848V14H70.1948V4.2H72.0848V8.176H72.1268C72.4068 7.7 73.1768 7.07 74.2968 7.07C75.9348 7.07 77.3768 8.498 77.3768 10.598C77.3768 12.698 75.9348 14.14 74.2968 14.14ZM73.7648 12.39C74.6748 12.39 75.4448 11.62 75.4448 10.598C75.4448 9.59 74.6748 8.82 73.7648 8.82C72.8548 8.82 72.0848 9.59 72.0848 10.598C72.0848 11.62 72.8548 12.39 73.7648 12.39ZM81.5091 7.07C83.3011 7.07 84.4911 8.26 84.4911 9.73V14H82.6991V13.062H82.6571C82.3771 13.524 81.6351 14.14 80.6131 14.14C79.2971 14.14 78.3591 13.23 78.3591 12.18C78.3591 11.018 79.1291 10.248 80.4591 9.996L82.6011 9.59C82.5731 9.058 82.0971 8.61 81.4111 8.61C80.6831 8.61 80.1651 9.03 79.8291 9.408L78.7511 8.372C79.2411 7.784 80.1931 7.07 81.5091 7.07ZM81.1591 12.628C81.9711 12.628 82.6011 11.998 82.6011 11.06V10.836L81.1311 11.13C80.5991 11.228 80.2911 11.55 80.2911 11.9C80.2911 12.32 80.5991 12.628 81.1591 12.628ZM88.204 14H86.314V4.2H88.204V14Z" fill="white"/>
<path d="M19 0C29.4934 0 38 8.50659 38 19C38 24.0291 36.0456 28.6013 32.8555 32H5.14453C1.95444 28.6013 0 24.0291 0 19C0 8.50659 8.50659 0 19 0Z" fill="#E9532F"/>
</svg>
