<svg width="106" height="41" viewBox="0 0 106 41" fill="none" xmlns="http://www.w3.org/2000/svg">
<path d="M72.3707 23.0324L73.4303 23.3507C73.3762 23.6198 73.2621 23.8745 73.0951 24.0931C72.9486 24.2878 72.754 24.4403 72.5293 24.534C72.2987 24.6397 72.0164 24.6926 71.6632 24.6926C71.2403 24.6926 70.904 24.6397 70.6217 24.516C70.3562 24.3935 70.1267 24.1808 69.9321 23.8625C69.7375 23.5634 69.6318 23.1561 69.6318 22.6792C69.6318 22.0437 69.8084 21.5488 70.1447 21.1956C70.4799 20.8424 70.9748 20.6827 71.5923 20.6827C72.0872 20.6827 72.4584 20.7896 72.7407 20.9842C73.023 21.1788 73.2345 21.4779 73.3582 21.9032L72.2975 22.1326C72.2782 22.0353 72.2362 21.9452 72.1749 21.8683C72.1101 21.7795 72.0248 21.7074 71.9263 21.6557C71.8278 21.6077 71.7184 21.5836 71.6091 21.5848C71.3448 21.5848 71.1322 21.6906 70.9917 21.92C70.8847 22.0798 70.8319 22.3441 70.8319 22.6804C70.8319 23.1045 70.904 23.4048 71.0265 23.5634C71.1598 23.7279 71.3629 23.8193 71.5755 23.812C71.8049 23.812 71.9815 23.74 72.0872 23.6174C72.2326 23.4529 72.3311 23.251 72.3695 23.0336L72.3707 23.0324ZM73.8531 22.6792C73.8531 22.0437 74.0297 21.55 74.3841 21.1956C74.7373 20.8424 75.231 20.6659 75.8677 20.6659C76.5044 20.6659 77.0149 20.8424 77.3681 21.1788C77.7213 21.532 77.8991 22.0089 77.8991 22.6444C77.8991 23.1033 77.827 23.4745 77.6684 23.7568C77.5099 24.0391 77.2984 24.2697 76.9969 24.4271C76.7146 24.5869 76.3434 24.6758 75.9194 24.6758C75.4953 24.6758 75.1253 24.6037 74.8238 24.4631C74.5283 24.313 74.2832 24.0787 74.1174 23.7916C73.9228 23.4745 73.8519 23.1381 73.8519 22.6792H73.8531ZM75.0544 22.6792C75.0544 23.0684 75.1265 23.3507 75.2671 23.5273C75.4088 23.7039 75.6022 23.7916 75.8677 23.7916C76.0947 23.8036 76.3146 23.7123 76.4671 23.5442C76.6077 23.3676 76.6798 23.0672 76.6798 22.6432C76.6798 22.272 76.6077 22.0077 76.4491 21.8479C76.3086 21.6713 76.096 21.6005 75.8497 21.6005C75.6238 21.5909 75.4076 21.6894 75.2659 21.8647C75.1253 22.0065 75.0532 22.2888 75.0532 22.6768L75.0544 22.6792ZM78.5142 20.7367H80.0878L80.6873 23.1033L81.2879 20.7367H82.8604V24.6229H81.8706V21.6557L81.1114 24.6229H80.2284L79.468 21.6557V24.6229H78.4781V20.7367H78.5142ZM83.6389 20.7367H85.6342C86.0751 20.7367 86.3946 20.8424 86.6049 21.0539C86.8175 21.2665 86.9232 21.5488 86.9232 21.9368C86.9232 22.3248 86.7995 22.6444 86.57 22.8558C86.3394 23.0865 85.9694 23.1922 85.4913 23.1922H84.839V24.6397H83.6377V20.7367H83.6389ZM84.839 22.3969H85.1393C85.3699 22.3969 85.5285 22.3609 85.6342 22.2732C85.7219 22.1855 85.7748 22.0966 85.7748 21.9729C85.7796 21.8551 85.7351 21.7398 85.6522 21.6557C85.5645 21.568 85.4216 21.532 85.1933 21.532H84.857V22.3981H84.839V22.3969ZM87.5599 20.7367H88.7612V23.6691H90.634V24.6229H87.5599V20.7367ZM91.2358 20.7367H92.4371V24.6229H91.2358V20.7367ZM95.6867 23.9694H94.3268L94.1322 24.6049H92.9117L94.3772 20.7187H95.6842L97.1498 24.6049H95.8957L95.683 23.9694H95.6867ZM95.4392 23.1393L95.0151 21.7434L94.5923 23.1393H95.4404H95.4392ZM97.5234 20.7367H98.6358L100.103 22.8907V20.7367H101.232V24.6229H100.101L98.6538 22.4858V24.6229H97.5234V20.7367ZM101.762 20.7367H105.417V21.6906H104.198V24.6229H102.997V21.6894H101.778V20.7355H101.76L101.762 20.7367ZM57.9204 26.6543L61.3993 25.5587L60.2689 23.0504C59.4388 24.0931 58.6087 25.435 57.9204 26.6531V26.6543ZM56.7371 15.1916L49.9186 0L0 2.82664L13.8305 40.5557L40.4512 32.1658C38.7549 29.7272 38.1375 26.8321 40.0968 25.4182C42.2879 23.8289 45.5915 25.6656 47.6926 28.2616C49.7239 24.8704 55.4289 16.9755 56.7371 15.1904V15.1916Z" fill="#444444"/>
<path d="M48.364 10.9765C50.4494 10.9765 52.1457 9.38719 52.1457 7.40866C52.1457 5.43013 50.4494 3.84082 48.364 3.84082C46.2786 3.84082 44.5835 5.43013 44.5835 7.40866C44.5835 9.38719 46.2798 10.9765 48.3652 10.9765H48.364ZM45.2731 12.5142H51.4549V28.6764H45.2719V12.5142H45.2731ZM42.2182 17.2304C42.2722 17.2473 42.3071 17.2304 42.3071 17.1764V13.0788C42.3071 13.0247 42.271 12.9719 42.2194 12.937C42.2194 12.937 41.4073 12.4072 38.9326 12.2655C38.8101 12.1946 36.637 12.1778 36.0543 12.2655C27.0446 12.9911 26.7095 19.5081 26.7095 19.7904V21.3809C26.7095 21.5755 26.7095 28.2331 36.0543 28.8169C36.9733 28.889 38.7561 28.8169 38.9326 28.8169C41.0878 28.8169 42.5702 28.1634 42.5702 28.1634C42.623 28.1454 42.6591 28.0949 42.6591 28.0397V24.2076C42.6591 24.1535 42.623 24.1355 42.587 24.1715C42.587 24.1715 41.9167 24.7025 38.9843 25.0016C38.1542 25.0893 37.747 25.0557 37.4478 25.0016C33.2794 24.2953 33.0847 21.2572 33.0847 21.2572C33.0847 21.2043 33.0667 21.1154 33.0667 21.0806V19.9153C33.0667 19.8613 33.0667 19.7736 33.0847 19.7375C33.0847 19.7375 33.3671 16.4688 37.4466 16.1168H38.9843C40.767 16.3463 42.217 17.2292 42.217 17.2292L42.2182 17.2304ZM9.53939 28.6223C9.53939 28.6752 9.57543 28.7088 9.62708 28.7088H15.6504C15.7044 28.7088 15.7381 28.6728 15.7381 28.6223V23.9228C15.7357 23.8772 15.7705 23.8376 15.8161 23.8352C15.8198 23.8352 15.8222 23.8352 15.8258 23.8352C15.8258 23.8352 25.4517 24.5247 25.4517 18.0774C25.4517 12.9719 19.4116 12.4241 17.4331 12.513H9.62468C9.57903 12.5106 9.53939 12.5454 9.53699 12.591C9.53699 12.5947 9.53699 12.597 9.53699 12.6007V28.6223H9.53939ZM15.6348 20.2493V16.0279H17.1172C17.1172 16.0279 19.2543 16.1156 19.4308 17.5824C19.4669 17.6893 19.4669 18.4125 19.4308 18.4486C19.1485 20.1616 17.2937 20.2493 17.2937 20.2493H15.6336H15.6348Z" fill="#FEFEFE"/>
<path d="M48.5433 36.476C49.0371 36.476 49.4263 36.476 50.0618 36.1925C52.2517 35.0453 59.6517 16.9754 67.4601 11.411C67.5154 11.3738 67.5634 11.3257 67.6018 11.2705C67.6547 11.1984 67.6547 11.1287 67.6547 11.1287C67.6547 11.1287 67.6547 10.7587 66.5075 10.7587C59.5652 10.5629 52.3406 25.1358 48.5433 30.8936C48.4893 30.9657 48.243 30.8936 48.243 30.8936C48.243 30.8936 45.6987 27.8916 43.4907 26.7431C43.4378 26.7263 43.1904 26.6386 42.9249 26.6566C42.7483 26.6566 41.7236 26.868 41.2479 27.363C40.6821 27.9636 40.6989 28.2988 40.6989 29.0232C40.6989 29.0772 40.7349 29.3235 40.8058 29.4472C41.3536 30.4011 43.8078 33.7911 45.8392 35.6639C46.1395 35.8934 46.6152 36.476 48.5421 36.476H48.5433ZM69.5095 5.95112H75.2853C76.4338 5.95112 77.3527 6.1109 78.0411 6.41002C78.7174 6.70313 79.312 7.15723 79.7721 7.73385C80.2322 8.31888 80.5674 8.98919 80.762 9.74841C80.9746 10.5088 81.0792 11.3209 81.0792 12.187C81.0792 13.5289 80.9206 14.5716 80.6203 15.3128C80.3392 16.0228 79.9055 16.6631 79.3493 17.1856C78.8015 17.6806 78.2189 18.0157 77.6002 18.1923C76.847 18.4049 76.0686 18.5191 75.2865 18.5287H69.5107V5.95112H69.5095ZM73.3957 8.79579V15.666H74.3495C75.1604 15.666 75.7454 15.5795 76.0794 15.4029C76.4157 15.2263 76.698 14.908 76.8926 14.4671C77.0873 14.0262 77.1918 13.2838 77.1918 12.2771C77.1918 10.9341 76.9803 10.0331 76.5395 9.53818C76.0986 9.04445 75.391 8.79579 74.3663 8.79579H73.3957ZM82.1543 14.3782L85.8639 14.1475C85.9516 14.7482 86.1114 15.2083 86.3588 15.5254C86.7649 16.0384 87.3295 16.2859 88.0719 16.2859C88.6209 16.2859 89.0617 16.1633 89.3609 15.8978C89.6612 15.6323 89.8198 15.332 89.8198 14.9957C89.8198 14.6785 89.6792 14.3782 89.3969 14.1127C89.1146 13.8484 88.4431 13.6178 87.4004 13.3883C85.6873 12.9991 84.486 12.4874 83.7448 11.8507C83.0024 11.2152 82.6492 10.4031 82.6492 9.41325C82.6492 8.75975 82.8439 8.1579 83.2151 7.57648C83.5851 6.99265 84.1509 6.55057 84.9101 6.21661C85.6705 5.88025 86.694 5.72168 88.0022 5.72168C89.6083 5.72168 90.8457 6.022 91.6758 6.62265C92.5227 7.2233 93.0188 8.17712 93.1774 9.48413L89.5038 9.69676C89.3969 9.13095 89.2035 8.72491 88.8852 8.45943C88.568 8.19514 88.1428 8.07021 87.5974 8.07021C87.1373 8.07021 86.8021 8.1579 86.5715 8.35251C86.3552 8.52309 86.2315 8.78498 86.2375 9.06007C86.2423 9.2763 86.3456 9.47812 86.5186 9.60786C86.6952 9.76643 87.1361 9.925 87.8256 10.0668C89.5218 10.4368 90.74 10.8092 91.4812 11.1792C92.2236 11.5492 92.7521 12.0261 93.0885 12.5751C93.4236 13.1228 93.5822 13.7583 93.5822 14.4479C93.5858 15.2395 93.3516 16.0144 92.9119 16.6727C92.471 17.3622 91.8331 17.874 91.0391 18.2271C90.245 18.5803 89.2203 18.7569 88.001 18.7569C85.8639 18.7569 84.3791 18.3509 83.549 17.5208C82.7381 16.6907 82.278 15.648 82.1531 14.377L82.1543 14.3782ZM94.5721 14.3782L98.2817 14.1475C98.3682 14.7482 98.5291 15.2083 98.7754 15.5254C99.1814 16.0384 99.7461 16.2859 100.488 16.2859C101.037 16.2859 101.478 16.1633 101.777 15.8978C102.078 15.6323 102.236 15.332 102.236 14.9957C102.236 14.6785 102.096 14.3782 101.813 14.1127C101.531 13.8484 100.86 13.6178 99.8181 13.3883C98.1039 12.9991 96.9026 12.4874 96.1614 11.8507C95.437 11.2152 95.0658 10.4031 95.0658 9.41325C95.0658 8.75975 95.2604 8.1579 95.6316 7.57648C96.0028 6.99265 96.5674 6.55057 97.3279 6.21661C98.0871 5.88025 99.1106 5.72168 100.419 5.72168C102.026 5.72168 103.262 6.022 104.092 6.62265C104.94 7.2233 105.435 8.17712 105.594 9.48413L101.92 9.69676C101.815 9.13095 101.62 8.72491 101.302 8.45943C100.985 8.19514 100.561 8.07021 100.014 8.07021C99.555 8.07021 99.2187 8.1579 98.988 8.35251C98.7718 8.52309 98.6481 8.78498 98.6541 9.06007C98.6541 9.25468 98.7406 9.44809 98.9352 9.60786C99.1118 9.76643 99.5538 9.925 100.242 10.0668C101.938 10.4368 103.157 10.8092 103.898 11.1792C104.64 11.5492 105.17 12.0261 105.505 12.5751C105.84 13.1228 106 13.7583 106 14.4479C106.002 15.2395 105.769 16.0144 105.328 16.6727C104.888 17.3622 104.25 17.874 103.456 18.2271C102.662 18.5803 101.637 18.7569 100.418 18.7569C98.2805 18.7569 96.7957 18.3509 95.9656 17.5208C95.1355 16.6907 94.6778 15.648 94.5697 14.377L94.5721 14.3782Z" fill="#444444"/>
</svg>
