<svg width="24" height="24" viewBox="0 0 24 24" fill="none" xmlns="http://www.w3.org/2000/svg">
<rect width="24" height="24" rx="12" fill="#253F4D"/>
<path fill-rule="evenodd" clip-rule="evenodd" d="M16.5472 6.01189C16.6075 6.02216 16.6481 6.03158 16.706 6.0488C16.7306 6.05613 16.7636 6.06564 16.7793 6.06994C16.795 6.07423 16.8335 6.08872 16.8648 6.10214C16.8962 6.11556 16.9384 6.13353 16.9585 6.14208C16.9787 6.15061 17.0208 6.17216 17.0522 6.18996C17.0836 6.20775 17.1288 6.2334 17.1528 6.24696C17.1767 6.2605 17.206 6.28057 17.2179 6.29154C17.2298 6.3025 17.2524 6.3202 17.2681 6.33087C17.2838 6.34152 17.2984 6.35238 17.3007 6.35499C17.3029 6.35759 17.3176 6.36846 17.3332 6.37912C17.37 6.40415 17.4702 6.50178 17.4958 6.53766C17.5068 6.55295 17.5216 6.57082 17.5287 6.57737C17.5359 6.58392 17.5507 6.60179 17.5616 6.61708C17.5726 6.63237 17.5907 6.65436 17.602 6.66594C17.6202 6.68474 17.6462 6.72553 17.758 6.91142C17.7753 6.94008 17.7894 6.9679 17.7894 6.97324C17.7894 6.97859 17.7985 7.00045 17.8096 7.02183C17.8207 7.04321 17.8386 7.08508 17.8494 7.11489C17.8602 7.14469 17.8729 7.1798 17.8776 7.1929C17.9012 7.25814 17.922 7.33288 17.936 7.40337C17.94 7.42303 17.9474 7.4552 17.9526 7.47485C17.9578 7.49451 17.9653 7.5374 17.9692 7.57016C17.9731 7.60292 17.9806 7.65653 17.9858 7.68929C17.998 7.76584 18.0061 15.9935 17.994 16.0367C17.9898 16.052 17.9826 16.0788 17.9781 16.0962C17.9544 16.1888 17.9239 16.2666 17.8901 16.3212C17.8693 16.3547 17.8498 16.3839 17.8469 16.3861C17.844 16.3883 17.8326 16.4026 17.8217 16.4179C17.7483 16.5206 17.5859 16.6281 17.4391 16.6711C17.4055 16.681 17.3668 16.6924 17.353 16.6965C17.3386 16.7007 17.0776 16.7038 16.7391 16.7038C16.1656 16.7038 16.1487 16.7034 16.0961 16.6873C16.0338 16.6683 16.0031 16.6581 15.9688 16.6453C15.9391 16.6343 15.8147 16.5623 15.7953 16.545C15.7877 16.5382 15.7686 16.5239 15.7529 16.5133C15.7174 16.4891 15.7123 16.4841 15.6879 16.4497C15.677 16.4344 15.662 16.4164 15.6544 16.4098C15.6469 16.4031 15.6203 16.3642 15.5954 16.3233C15.5542 16.2557 15.5312 16.2012 15.506 16.1121C15.4996 16.0896 15.4958 15.4691 15.4926 13.9717L15.4882 11.863L15.1868 11.8569C15.021 11.8535 14.4877 11.8473 14.0015 11.8431C13.5154 11.8388 12.8776 11.8317 12.5841 11.8273C12.2907 11.8229 11.8032 11.8158 11.5007 11.8115C11.1983 11.8072 10.8922 11.8028 10.8205 11.8016L10.6902 11.7994L10.692 11.9702C10.6939 12.1458 10.704 12.3842 10.7185 12.5937C10.7398 12.9025 10.7525 13.0615 10.7674 13.2072C10.772 13.252 10.7793 13.3235 10.7836 13.3661C10.788 13.4086 10.7954 13.4739 10.8001 13.511C10.8048 13.5481 10.8121 13.6089 10.8162 13.646C10.8204 13.6832 10.8278 13.7368 10.8328 13.7652C10.8377 13.7936 10.845 13.8472 10.8489 13.8843C10.8528 13.9214 10.8602 13.9715 10.8653 13.9955C10.8704 14.0195 10.8778 14.066 10.8816 14.0987C10.8855 14.1315 10.8928 14.178 10.8978 14.202C10.9027 14.226 10.9102 14.2653 10.9142 14.2894C10.9183 14.3134 10.9256 14.3527 10.9305 14.3767C10.9354 14.4007 10.9427 14.4401 10.9468 14.4641C10.9537 14.5047 10.9573 14.5233 10.9794 14.6309C10.9839 14.6527 10.991 14.6876 10.9952 14.7083C10.9994 14.7291 11.007 14.7621 11.0121 14.7818C11.0172 14.8014 11.0242 14.8372 11.0276 14.8612C11.031 14.8852 11.0398 14.921 11.0472 14.9406C11.0546 14.9603 11.0607 14.985 11.0607 14.9957C11.0609 15.0155 11.0637 15.0263 11.0928 15.1164C11.1021 15.1454 11.1097 15.1776 11.1097 15.188C11.1097 15.1984 11.1171 15.2265 11.126 15.2504C11.135 15.2743 11.1423 15.3039 11.1423 15.3161C11.1423 15.3284 11.1496 15.3524 11.1586 15.3695C11.1676 15.3866 11.1749 15.4068 11.1749 15.4143C11.1749 15.4218 11.1783 15.4389 11.1824 15.4523C11.2071 15.5318 11.2586 15.6945 11.265 15.713C11.2692 15.725 11.2763 15.7456 11.2808 15.7587C11.2853 15.7718 11.2926 15.7932 11.2971 15.8063C11.3016 15.8194 11.3089 15.8409 11.3134 15.854C11.3526 15.9689 11.3792 16.0385 11.3957 16.07C11.4049 16.0876 11.419 16.1221 11.4271 16.1468C11.4352 16.1714 11.4546 16.2183 11.4704 16.2511C11.4861 16.2839 11.5107 16.3375 11.5251 16.3702C11.5887 16.5148 11.6367 16.6065 11.7218 16.746C11.7528 16.7969 11.7551 16.8711 11.7268 16.9033C11.6786 16.9579 11.6021 16.9734 11.5315 16.9429C11.5123 16.9347 11.4765 16.92 11.4519 16.9103C11.4272 16.9007 11.3906 16.8855 11.3704 16.8766C11.3502 16.8677 11.3159 16.8539 11.2941 16.846C11.2723 16.8381 11.2301 16.8177 11.2004 16.8007C11.1707 16.7837 11.1189 16.7542 11.0853 16.7352C11.0202 16.6983 10.9047 16.6252 10.8979 16.6165C10.8957 16.6136 10.87 16.5957 10.8409 16.5767C10.8118 16.5577 10.7825 16.5363 10.7757 16.5293C10.769 16.5222 10.7507 16.5078 10.735 16.4972C10.7193 16.4866 10.6937 16.4652 10.678 16.4497C10.6623 16.4341 10.6367 16.4126 10.621 16.4018C10.584 16.3765 10.3866 16.184 10.3605 16.1479C10.3494 16.1326 10.3237 16.104 10.3033 16.0843C10.2829 16.0647 10.2573 16.0361 10.2464 16.0208C10.2356 16.0055 10.2208 15.9876 10.2137 15.9811C10.2065 15.9745 10.1919 15.9566 10.1811 15.9414C10.1703 15.9261 10.1593 15.9118 10.1567 15.9096C10.154 15.9074 10.143 15.8931 10.1322 15.8778C10.1214 15.8625 10.1104 15.8482 10.1078 15.8461C10.1051 15.8439 10.0941 15.8296 10.0833 15.8143C10.0726 15.799 10.0614 15.7847 10.0585 15.7825C10.0557 15.7803 10.0132 15.7196 9.96414 15.6475C9.88497 15.5312 9.82848 15.4413 9.72436 15.2663C9.68799 15.2051 9.47687 14.787 9.44062 14.7043C9.42673 14.6727 9.40477 14.6226 9.39182 14.5932C9.37887 14.5637 9.36054 14.5208 9.35109 14.4978C9.32154 14.4261 9.29997 14.3741 9.28445 14.337C9.25357 14.2633 9.14752 13.9566 9.09081 13.7771C9.07288 13.7203 9.04831 13.6434 9.03623 13.6063C9.02413 13.5692 9.01084 13.5245 9.0067 13.507C8.99928 13.4757 8.99028 13.44 8.97511 13.3819C8.97084 13.3656 8.96385 13.3388 8.95957 13.3224C8.9553 13.306 8.94779 13.2765 8.94291 13.2569C8.93311 13.2175 8.92209 13.1743 8.90944 13.1258C8.90488 13.1083 8.89795 13.078 8.89403 13.0583C8.89011 13.0386 8.88278 13.0065 8.87774 12.9868C8.8727 12.9672 8.86514 12.9341 8.86093 12.9134C8.85674 12.8926 8.84963 12.8578 8.84515 12.8359C8.84067 12.8141 8.83334 12.7783 8.82886 12.7565C8.80679 12.6489 8.80313 12.6301 8.7959 12.5877C8.79163 12.5626 8.78434 12.5197 8.7797 12.4924C8.77507 12.4651 8.76786 12.4195 8.7637 12.3911C8.75953 12.3628 8.75214 12.3163 8.74726 12.2879C8.74239 12.2595 8.73501 12.2059 8.73088 12.1688C8.72673 12.1316 8.71945 12.0709 8.71471 12.0337C8.70997 11.9966 8.70262 11.9287 8.69837 11.8828C8.69412 11.837 8.68672 11.7619 8.68193 11.716C8.64785 11.3897 8.64788 10.3135 8.68198 10.0243C8.68687 9.98284 8.69423 9.90778 8.69833 9.85755C8.70244 9.80731 8.70978 9.7394 8.71467 9.70664C8.71955 9.67388 8.72689 9.6167 8.73098 9.57957C8.73506 9.54244 8.74239 9.48882 8.74726 9.46043C8.75214 9.43204 8.75953 9.38557 8.7637 9.35718C8.76786 9.32879 8.77507 9.28322 8.7797 9.25592C8.78434 9.22862 8.79163 9.18573 8.7959 9.16061C8.80459 9.10963 8.81284 9.06781 8.8449 8.91241C8.84896 8.89275 8.8564 8.86059 8.86145 8.84093C8.86649 8.82127 8.8735 8.78911 8.87703 8.76945C8.88057 8.74979 8.88944 8.71763 8.89677 8.69797C8.90409 8.67831 8.91013 8.65376 8.9102 8.64341C8.91026 8.63306 8.9174 8.60268 8.92604 8.5759C8.93469 8.54912 8.94598 8.51113 8.95112 8.49147C8.96017 8.4569 9.01758 8.27186 9.03306 8.22739C9.03724 8.21537 9.04432 8.19482 9.0488 8.18172C9.06751 8.12701 9.0761 8.10327 9.0977 8.0467C9.11019 8.01394 9.12814 7.96837 9.13756 7.94543C9.14699 7.9225 9.16241 7.88498 9.17185 7.86204C9.18127 7.8391 9.19409 7.80695 9.20031 7.79058C9.22076 7.73681 9.3841 7.42445 9.41518 7.37967C9.43192 7.35557 9.45154 7.32458 9.45881 7.3108C9.46607 7.29702 9.4768 7.28093 9.48266 7.27506C9.48851 7.26919 9.50216 7.25187 9.513 7.23658C9.52383 7.22129 9.53489 7.207 9.53756 7.20481C9.54023 7.20263 9.55123 7.18833 9.56201 7.17304C9.57278 7.15776 9.58744 7.13989 9.59458 7.13333C9.60173 7.12678 9.61654 7.10891 9.62751 7.09362C9.65338 7.05752 9.86711 6.84914 9.90413 6.82392C9.91981 6.81323 9.93814 6.79878 9.94486 6.79181C9.95158 6.78485 9.96991 6.77055 9.98559 6.76005C10.0013 6.74954 10.0159 6.7387 10.0182 6.73593C10.0245 6.72812 10.1621 6.6394 10.23 6.59935C10.2905 6.56363 10.4255 6.49831 10.5354 6.45153C10.5863 6.42991 10.6267 6.41489 10.7065 6.38801C10.7625 6.36916 10.8717 6.33666 10.902 6.32983C10.9199 6.32579 10.9493 6.31886 10.9672 6.31442C10.9851 6.30997 11.0163 6.30321 11.0364 6.29939C11.0566 6.29557 11.0896 6.28825 11.1097 6.28315C11.1642 6.26932 11.2403 6.26472 11.2505 6.27463C11.2567 6.28069 11.252 6.30556 11.234 6.36076C11.2202 6.40345 11.201 6.46519 11.1913 6.49795C11.1817 6.53071 11.1704 6.56735 11.1662 6.57936C11.162 6.59137 11.1552 6.61103 11.151 6.62304C11.1438 6.64344 11.1366 6.66983 11.1166 6.74813C11.1121 6.7656 11.1017 6.80313 11.0934 6.83153C11.0852 6.85992 11.0742 6.89923 11.0691 6.91889C11.0639 6.93855 11.0526 6.97654 11.044 7.00333C11.0353 7.03011 11.0282 7.06049 11.0281 7.07083C11.0281 7.08118 11.022 7.10573 11.0147 7.12539C11.0074 7.14505 10.9985 7.17721 10.995 7.19687C10.9915 7.21653 10.9844 7.2487 10.9794 7.26835C10.9744 7.28801 10.967 7.32018 10.9631 7.33983C10.9592 7.35949 10.9518 7.39166 10.9467 7.41131C10.9416 7.43097 10.9342 7.46671 10.9303 7.49074C10.9205 7.55032 10.9089 7.60686 10.8977 7.64958C10.8926 7.66924 10.8852 7.70855 10.8814 7.73695C10.8776 7.76534 10.8703 7.80823 10.8653 7.83226C10.8602 7.85628 10.8529 7.90274 10.8491 7.93551C10.8452 7.96827 10.8378 8.01473 10.8327 8.03876C10.8276 8.06278 10.8201 8.11282 10.8161 8.14995C10.812 8.18708 10.8049 8.24784 10.8002 8.28497C10.787 8.38981 10.7761 8.48843 10.7686 8.57089C10.7649 8.61239 10.7595 8.65349 10.7568 8.66223C10.7514 8.67901 10.7454 8.76561 10.7353 8.96801C10.7319 9.03572 10.7269 9.10005 10.7241 9.11097C10.7142 9.15009 10.7084 9.37554 10.7075 9.76224L10.7065 10.1554L11.8958 10.1614C12.5499 10.1647 13.6258 10.1682 14.2867 10.1693L15.4882 10.1713L15.4941 9.78607C15.4974 9.5742 15.5038 9.29186 15.5084 9.15862C15.5426 8.16937 15.5429 7.4782 15.5093 7.22467C15.4839 7.03328 15.4816 7.02161 15.4532 6.93793C15.4271 6.86131 15.3894 6.79518 15.3496 6.75638C15.2917 6.69999 15.2559 6.68535 15.1318 6.66747C15.1085 6.66412 15.1012 6.65939 15.1012 6.64766C15.1012 6.63001 15.1752 6.51971 15.2069 6.49001C15.2186 6.47908 15.2371 6.45764 15.2481 6.44235C15.2738 6.40655 15.3417 6.3404 15.3782 6.31556C15.3939 6.30489 15.4122 6.29038 15.4189 6.28328C15.4334 6.26799 15.53 6.20498 15.6114 6.15771C15.6764 6.12 15.7133 6.1051 15.8547 6.05956C15.9935 6.01489 15.999 6.01348 16.0345 6.01335C16.0521 6.01328 16.072 6.00969 16.0788 6.00537C16.0946 5.99523 16.4808 6.0006 16.5472 6.01189ZM8.32428 8.31157C8.32027 8.32184 8.29103 8.38078 8.25931 8.44254C8.22757 8.5043 8.1965 8.56827 8.19025 8.5847C8.184 8.60113 8.17074 8.63423 8.16078 8.65826C8.14384 8.69913 8.08154 8.87891 8.0462 8.9889C8.0376 9.01569 8.0305 9.04606 8.03044 9.05641C8.03037 9.06676 8.02428 9.09131 8.01689 9.11097C8.00951 9.13063 8.00057 9.16637 7.99701 9.19039C7.99347 9.21442 7.98657 9.25373 7.98168 9.27776C7.96828 9.34366 7.95738 9.40994 7.94874 9.4783C7.94446 9.51216 7.93716 9.56934 7.93251 9.60538C7.92788 9.64142 7.92058 9.70843 7.9163 9.7543C7.91201 9.80016 7.90463 9.87879 7.8999 9.92903C7.8828 10.1102 7.87504 10.4106 7.87487 10.898C7.87471 11.3739 7.88073 11.5695 7.90005 11.716C7.90495 11.7532 7.9123 11.8211 7.91641 11.867C7.92052 11.9128 7.92764 11.9754 7.93226 12.0059C7.94021 12.0586 7.9473 12.1073 7.96493 12.2303C7.96915 12.2598 7.9767 12.3036 7.98168 12.3276C7.98667 12.3516 7.994 12.3945 7.99798 12.4229C8.00195 12.4513 8.00924 12.4942 8.01418 12.5182C8.01911 12.5422 8.02637 12.5816 8.03031 12.6056C8.03424 12.6296 8.04164 12.6654 8.04674 12.685C8.05184 12.7047 8.05945 12.7377 8.06366 12.7585C8.06785 12.7792 8.07473 12.8132 8.07892 12.8339C8.08313 12.8547 8.09068 12.8877 8.09573 12.9074C8.10077 12.9271 8.1081 12.9592 8.11202 12.9789C8.11594 12.9985 8.12327 13.0307 8.12831 13.0504C8.13335 13.07 8.14043 13.1022 8.14405 13.1218C8.14766 13.1415 8.15688 13.1772 8.16454 13.2013C8.17219 13.2253 8.18184 13.2583 8.18597 13.2747C8.19567 13.3132 8.20753 13.3594 8.21856 13.4018C8.23268 13.4561 8.27413 13.5976 8.31565 13.7334C8.34628 13.8335 8.52728 14.3636 8.55838 14.4442C8.57186 14.4792 8.5908 14.5292 8.60046 14.5554C8.6193 14.6065 8.63806 14.6521 8.67409 14.7341C8.68655 14.7625 8.70488 14.8054 8.71482 14.8294C8.73272 14.8727 8.75359 14.9209 8.80425 15.0359C8.83698 15.1103 9.07103 15.5695 9.11211 15.6401C9.15976 15.7219 9.39379 16.0748 9.4067 16.0843C9.40966 16.0865 9.42089 16.1008 9.43166 16.1161C9.44243 16.1314 9.45343 16.1457 9.4561 16.1479C9.45877 16.15 9.4698 16.1643 9.48062 16.1796C9.49143 16.1949 9.50972 16.2164 9.52127 16.2273C9.53282 16.2382 9.55115 16.2596 9.562 16.2749C9.57285 16.2902 9.59118 16.3117 9.60273 16.3226C9.61428 16.3335 9.63273 16.355 9.64373 16.3702C9.66976 16.4064 9.96479 16.6941 10.0019 16.7194C10.0176 16.7302 10.0396 16.7482 10.0508 16.7594C10.062 16.7707 10.084 16.7885 10.0996 16.7991C10.1153 16.8096 10.1336 16.8239 10.1404 16.8309C10.1471 16.8379 10.1654 16.8522 10.1811 16.8627C10.1968 16.8732 10.2114 16.884 10.2137 16.8867C10.2159 16.8894 10.2416 16.9072 10.2707 16.9262C10.2998 16.9452 10.3255 16.9631 10.3277 16.966C10.3344 16.9745 10.4496 17.0476 10.511 17.0822C10.5424 17.0999 10.5937 17.129 10.625 17.1468C10.7169 17.1988 10.9321 17.298 11.0771 17.3551C11.1018 17.3648 11.1348 17.3783 11.1505 17.3852C11.1661 17.392 11.2001 17.4006 11.2258 17.4042C11.362 17.4232 11.3804 17.427 11.4288 17.4462C11.4363 17.4492 11.4518 17.4655 11.4634 17.4826C11.4988 17.5347 11.4912 17.6184 11.4445 17.6916C11.4227 17.7257 11.3143 17.7993 11.2399 17.8305C11.2154 17.8408 11.1788 17.8565 11.1586 17.8654C11.1014 17.8907 11.0421 17.9111 11.0259 17.9111C11.0178 17.9111 10.9994 17.917 10.9851 17.9243C10.9471 17.9436 10.8699 17.9595 10.6576 17.9917C10.583 18.0031 10.1263 18.0026 10.0263 17.9911C9.98376 17.9862 9.91411 17.9789 9.87154 17.9749C9.82898 17.9709 9.77033 17.9637 9.74121 17.9589C9.71209 17.9541 9.66443 17.947 9.63531 17.943C9.60619 17.939 9.56312 17.932 9.5396 17.9274C9.51607 17.9228 9.47941 17.9156 9.45814 17.9116C9.43686 17.9075 9.40295 17.9001 9.38279 17.8952C9.36263 17.8903 9.32964 17.8831 9.30947 17.8793C9.28931 17.8755 9.25723 17.8685 9.2382 17.8639C9.21916 17.8593 9.18891 17.8519 9.17099 17.8475C9.15307 17.8431 9.12467 17.8366 9.10786 17.833C9.09106 17.8293 9.06558 17.8204 9.05125 17.8131C9.0369 17.8058 9.01936 17.7999 9.01227 17.7999C8.99856 17.7999 8.75233 17.7211 8.70574 17.7019C8.69057 17.6956 8.658 17.6825 8.63336 17.6728C8.41191 17.5859 8.11211 17.4357 7.95725 17.3341C7.9102 17.3033 7.86015 17.2722 7.84601 17.2651C7.83187 17.258 7.81538 17.2475 7.80936 17.2417C7.80333 17.2359 7.77457 17.2155 7.74545 17.1964C7.71633 17.1773 7.687 17.1558 7.68028 17.1488C7.67356 17.1417 7.65523 17.1273 7.63955 17.1168C7.62387 17.1063 7.60921 17.0956 7.60697 17.093C7.60473 17.0904 7.59007 17.0796 7.57439 17.069C7.5587 17.0585 7.53305 17.0371 7.51736 17.0215C7.50168 17.0059 7.47602 16.9844 7.46034 16.9736C7.42312 16.9481 7.04673 16.5811 7.02074 16.545C7.00973 16.5297 6.99128 16.5082 6.97973 16.4973C6.96818 16.4864 6.94988 16.465 6.93907 16.4497C6.92826 16.4344 6.91356 16.4165 6.90642 16.41C6.89927 16.4034 6.88461 16.3855 6.87383 16.3702C6.86306 16.355 6.84839 16.3371 6.84125 16.3305C6.83411 16.324 6.81944 16.3061 6.80867 16.2908C6.7979 16.2755 6.78673 16.2612 6.78385 16.2591C6.78097 16.2569 6.73117 16.1854 6.67317 16.1002C6.57955 15.9627 6.52365 15.8743 6.4171 15.6951C6.38253 15.637 6.25294 15.3789 6.21573 15.2941C6.1658 15.1802 6.15675 15.1568 6.12521 15.0598C6.07142 14.8943 6.0655 14.8745 6.05868 14.8374C6.05507 14.8177 6.0479 14.7856 6.04274 14.7659C6.03759 14.7462 6.03016 14.7069 6.02623 14.6785C6.0223 14.6501 6.01478 14.6037 6.00952 14.5753C5.99699 14.5077 5.99677 14.1197 6.00923 14.0531C6.01433 14.0258 6.0219 13.9829 6.02604 13.9578C6.03017 13.9327 6.03773 13.896 6.04283 13.8764C6.04794 13.8567 6.05486 13.8245 6.05823 13.8049C6.06159 13.7852 6.07053 13.7577 6.07809 13.7437C6.08564 13.7297 6.09182 13.7118 6.09182 13.7039C6.09182 13.6901 6.10415 13.6556 6.14155 13.5646C6.15098 13.5417 6.16386 13.5093 6.17019 13.4927C6.19517 13.4269 6.33551 13.1849 6.36579 13.1554C6.37197 13.1494 6.38094 13.1373 6.38571 13.1286C6.39653 13.1089 6.48827 13.0504 6.50832 13.0504C6.52367 13.0504 6.548 13.0872 6.548 13.1105C6.548 13.1178 6.55507 13.1456 6.56372 13.1724C6.57237 13.1992 6.58365 13.2372 6.5888 13.2569C6.62984 13.4136 6.7685 13.8362 6.8559 14.0709C6.87378 14.119 6.89636 14.1798 6.90605 14.206C6.91574 14.2322 6.93079 14.2706 6.93948 14.2913C6.94818 14.3121 6.96302 14.3478 6.97247 14.3708C6.99731 14.4311 7.0695 14.5952 7.12002 14.7063C7.16588 14.8072 7.37892 15.2236 7.43086 15.3139C7.53433 15.4938 7.55244 15.5237 7.68837 15.7388C7.73201 15.8079 7.81961 15.936 7.82684 15.9414C7.82979 15.9435 7.84815 15.9686 7.86764 15.997C7.88713 16.0253 7.90536 16.0504 7.90815 16.0526C7.91094 16.0547 7.92204 16.069 7.93281 16.0843C7.94358 16.0996 7.95457 16.1139 7.95725 16.1161C7.95992 16.1183 7.97091 16.1326 7.98169 16.1479C7.99246 16.1631 8.00712 16.181 8.01427 16.1876C8.02141 16.1941 8.03611 16.212 8.04692 16.2273C8.05773 16.2426 8.07603 16.264 8.08758 16.2749C8.09913 16.2859 8.11746 16.3073 8.12831 16.3226C8.13916 16.3379 8.15749 16.3593 8.16904 16.3702C8.18059 16.3812 8.19904 16.4026 8.21005 16.4179C8.23608 16.4541 8.54739 16.7576 8.58448 16.783C8.60016 16.7937 8.62216 16.8117 8.63336 16.823C8.64456 16.8342 8.66655 16.8521 8.68224 16.8626C8.69792 16.8731 8.71624 16.8875 8.72297 16.8944C8.72969 16.9014 8.74801 16.9157 8.7637 16.9262C8.77938 16.9367 8.79404 16.9474 8.79628 16.95C8.79852 16.9526 8.81318 16.9634 8.82886 16.974C8.84454 16.9846 8.8635 16.9987 8.87099 17.0054C8.92494 17.0534 9.37813 17.2916 9.4156 17.2916C9.42479 17.2916 9.44591 17.298 9.46254 17.306C9.49198 17.32 9.57374 17.3458 9.63938 17.3618C9.65731 17.3661 9.68754 17.3741 9.70656 17.3795C9.73723 17.3883 9.74299 17.3877 9.75747 17.375C9.77585 17.3588 9.77908 17.3195 9.76458 17.2885C9.75618 17.2705 9.63389 17.1847 9.57263 17.1538C9.55867 17.1468 9.54232 17.1363 9.5363 17.1305C9.53027 17.1247 9.50151 17.1043 9.47239 17.0852C9.44327 17.0661 9.41395 17.0446 9.40723 17.0376C9.4005 17.0305 9.38218 17.0161 9.3665 17.0056C9.35081 16.9951 9.33615 16.9844 9.33391 16.9818C9.33167 16.9792 9.31701 16.9684 9.30133 16.9578C9.28565 16.9472 9.25632 16.9223 9.23616 16.9024C9.216 16.8825 9.18667 16.8574 9.17099 16.8466C9.13396 16.8211 8.83895 16.5335 8.81273 16.4973C8.80166 16.482 8.77226 16.4499 8.7474 16.4258C8.72254 16.4018 8.69331 16.3696 8.68243 16.3544C8.67156 16.3391 8.66047 16.3248 8.6578 16.3226C8.65513 16.3204 8.6441 16.3061 8.63328 16.2908C8.62247 16.2755 8.60418 16.2541 8.59263 16.2432C8.58108 16.2322 8.56279 16.2108 8.55198 16.1955C8.54116 16.1802 8.53013 16.1659 8.52746 16.1637C8.52479 16.1616 8.51379 16.1473 8.50302 16.132C8.49226 16.1167 8.48116 16.1024 8.47837 16.1002C8.47557 16.098 8.45734 16.073 8.43786 16.0446C8.41837 16.0162 8.3999 15.9912 8.39683 15.989C8.38143 15.9781 8.16589 15.6504 8.07297 15.4966C7.93115 15.2619 7.72593 14.8561 7.62415 14.609C7.6147 14.5861 7.59921 14.5486 7.58972 14.5256C7.58024 14.5027 7.566 14.4679 7.55809 14.4482C7.55018 14.4285 7.53617 14.3946 7.52694 14.3728C7.49201 14.29 7.32989 13.8216 7.29672 13.7076C7.28815 13.6781 7.27409 13.6299 7.26548 13.6004C7.24976 13.5465 7.2378 13.5025 7.22287 13.4435C7.21845 13.426 7.20775 13.3898 7.1991 13.363C7.19046 13.3363 7.18332 13.3059 7.18326 13.2955C7.18319 13.2852 7.17715 13.2606 7.16983 13.241C7.1625 13.2213 7.15362 13.1891 7.15009 13.1695C7.14656 13.1498 7.13955 13.1177 7.1345 13.098C7.12946 13.0784 7.1219 13.0453 7.1177 13.0245C7.1135 13.0038 7.1064 12.9689 7.10192 12.9471C7.07986 12.8396 7.07621 12.8209 7.06934 12.7803C7.06526 12.7563 7.05789 12.717 7.05296 12.693C7.04802 12.6689 7.04073 12.626 7.03675 12.5976C7.03278 12.5693 7.02545 12.5264 7.02046 12.5023C7.0026 12.4163 6.97315 12.1862 6.9549 11.9901C6.93368 11.762 6.92967 11.6541 6.92963 11.311C6.92959 10.9146 6.93789 10.7597 6.97115 10.5366C6.9757 10.506 6.98296 10.456 6.98727 10.4254C6.99158 10.3948 6.99886 10.352 7.00344 10.3301C7.01468 10.2767 7.02643 10.2193 7.03598 10.1713C7.04032 10.1494 7.04777 10.1164 7.05253 10.0978C7.0573 10.0792 7.06437 10.0506 7.06825 10.0343C7.07215 10.0179 7.08125 9.9884 7.0885 9.96874C7.09575 9.94908 7.10173 9.92661 7.1018 9.91878C7.10186 9.91097 7.10925 9.89055 7.11821 9.87343C7.12717 9.85631 7.1345 9.8351 7.1345 9.82631C7.1345 9.81751 7.14144 9.79503 7.14993 9.77635C7.15841 9.75767 7.17346 9.72273 7.18336 9.6987C7.24628 9.54604 7.32922 9.38387 7.4179 9.24005C7.45001 9.18799 7.54265 9.05277 7.54987 9.04743C7.55282 9.04525 7.57121 9.02023 7.59071 8.99183C7.61022 8.96344 7.63212 8.93485 7.63937 8.9283C7.64662 8.92174 7.66139 8.90387 7.67221 8.88858C7.68302 8.8733 7.70132 8.85185 7.71287 8.84093C7.72442 8.83001 7.74287 8.80857 7.75387 8.79328C7.76487 8.77799 7.83621 8.7047 7.9124 8.63042C7.98859 8.55613 8.06375 8.48658 8.07943 8.47585C8.09512 8.46512 8.11711 8.44713 8.12831 8.43587C8.13951 8.42461 8.16151 8.40677 8.17719 8.39623C8.19287 8.38568 8.2112 8.37136 8.21792 8.36439C8.22464 8.35743 8.24296 8.34307 8.25865 8.3325C8.27433 8.32194 8.292 8.30871 8.29792 8.3031C8.31676 8.28526 8.33255 8.29035 8.32428 8.31157Z" fill="#BEA645"/>
</svg>
