<svg width="32" height="32" viewBox="0 0 32 32" fill="none" xmlns="http://www.w3.org/2000/svg">
<rect width="32" height="32" rx="16" fill="#253F4D"/>
<path fill-rule="evenodd" clip-rule="evenodd" d="M20.1487 10.0119C20.2091 10.0222 20.2496 10.0316 20.3076 10.0488C20.3322 10.0561 20.3652 10.0656 20.3809 10.0699C20.3966 10.0742 20.435 10.0887 20.4664 10.1021C20.4978 10.1156 20.5399 10.1335 20.5601 10.1421C20.5802 10.1506 20.6224 10.1722 20.6538 10.19C20.6851 10.2078 20.7304 10.2334 20.7543 10.247C20.7783 10.2605 20.8076 10.2806 20.8195 10.2915C20.8314 10.3025 20.854 10.3202 20.8696 10.3309C20.8853 10.3415 20.9 10.3524 20.9022 10.355C20.9045 10.3576 20.9191 10.3685 20.9348 10.3791C20.9716 10.4041 21.0717 10.5018 21.0974 10.5377C21.1084 10.5529 21.1232 10.5708 21.1303 10.5774C21.1374 10.5839 21.1522 10.6018 21.1632 10.6171C21.1741 10.6324 21.1923 10.6544 21.2035 10.6659C21.2218 10.6847 21.2477 10.7255 21.3596 10.9114C21.3769 10.9401 21.391 10.9679 21.391 10.9732C21.391 10.9786 21.4001 11.0005 21.4112 11.0218C21.4223 11.0432 21.4402 11.0851 21.451 11.1149C21.4617 11.1447 21.4744 11.1798 21.4792 11.1929C21.5028 11.2581 21.5235 11.3329 21.5376 11.4034C21.5415 11.423 21.549 11.4552 21.5542 11.4749C21.5594 11.4945 21.5668 11.5374 21.5707 11.5702C21.5747 11.6029 21.5822 11.6565 21.5874 11.6893C21.5996 11.7658 21.6077 19.9935 21.5956 20.0367C21.5913 20.052 21.5842 20.0788 21.5797 20.0962C21.5559 20.1888 21.5254 20.2666 21.4916 20.3212C21.4708 20.3547 21.4514 20.3839 21.4485 20.3861C21.4455 20.3883 21.4342 20.4026 21.4233 20.4179C21.3499 20.5206 21.1875 20.6281 21.0407 20.6711C21.0071 20.681 20.9683 20.6924 20.9546 20.6965C20.9402 20.7007 20.6792 20.7038 20.3406 20.7038C19.7671 20.7038 19.7503 20.7034 19.6977 20.6873C19.6353 20.6683 19.6046 20.6581 19.5704 20.6453C19.5407 20.6343 19.4162 20.5623 19.3969 20.545C19.3892 20.5382 19.3702 20.5239 19.3545 20.5133C19.319 20.4891 19.3139 20.4841 19.2894 20.4497C19.2786 20.4344 19.2635 20.4164 19.256 20.4098C19.2484 20.4031 19.2219 20.3642 19.197 20.3233C19.1558 20.2557 19.1327 20.2012 19.1076 20.1121C19.1012 20.0896 19.0973 19.4691 19.0942 17.9717L19.0897 15.863L18.7883 15.8569C18.6226 15.8535 18.0892 15.8473 17.6031 15.8431C17.117 15.8388 16.4792 15.8317 16.1857 15.8273C15.8923 15.8229 15.4047 15.8158 15.1023 15.8115C14.7999 15.8072 14.4938 15.8028 14.4221 15.8016L14.2918 15.7994L14.2936 15.9702C14.2954 16.1458 14.3055 16.3842 14.32 16.5937C14.3414 16.9025 14.3541 17.0615 14.369 17.2072C14.3736 17.252 14.3809 17.3235 14.3852 17.3661C14.3896 17.4086 14.397 17.4739 14.4017 17.511C14.4064 17.5481 14.4137 17.6089 14.4178 17.646C14.4219 17.6832 14.4294 17.7368 14.4343 17.7652C14.4393 17.7936 14.4465 17.8472 14.4504 17.8843C14.4544 17.9214 14.4617 17.9715 14.4668 17.9955C14.472 18.0195 14.4793 18.066 14.4832 18.0987C14.4871 18.1315 14.4943 18.178 14.4993 18.202C14.5043 18.226 14.5117 18.2653 14.5158 18.2894C14.5199 18.3134 14.5272 18.3527 14.5321 18.3767C14.537 18.4007 14.5443 18.4401 14.5484 18.4641C14.5552 18.5047 14.5589 18.5233 14.581 18.6309C14.5854 18.6527 14.5925 18.6876 14.5967 18.7083C14.6009 18.7291 14.6085 18.7621 14.6137 18.7818C14.6188 18.8014 14.6257 18.8372 14.6291 18.8612C14.6325 18.8852 14.6414 18.921 14.6487 18.9406C14.6561 18.9603 14.6622 18.985 14.6623 18.9957C14.6624 19.0155 14.6653 19.0263 14.6943 19.1164C14.7037 19.1454 14.7113 19.1776 14.7113 19.188C14.7113 19.1984 14.7186 19.2265 14.7276 19.2504C14.7365 19.2743 14.7439 19.3039 14.7439 19.3161C14.7439 19.3284 14.7512 19.3524 14.7602 19.3695C14.7691 19.3866 14.7765 19.4068 14.7765 19.4143C14.7765 19.4218 14.7799 19.4389 14.784 19.4523C14.8086 19.5318 14.8602 19.6945 14.8666 19.713C14.8708 19.725 14.8779 19.7456 14.8824 19.7587C14.8868 19.7718 14.8942 19.7932 14.8986 19.8063C14.9031 19.8194 14.9105 19.8409 14.9149 19.854C14.9542 19.9689 14.9807 20.0385 14.9972 20.07C15.0064 20.0876 15.0206 20.1221 15.0286 20.1468C15.0367 20.1714 15.0562 20.2183 15.0719 20.2511C15.0876 20.2839 15.1123 20.3375 15.1267 20.3702C15.1903 20.5148 15.2383 20.6065 15.3234 20.746C15.3543 20.7969 15.3567 20.8711 15.3283 20.9033C15.2801 20.9579 15.2037 20.9734 15.1331 20.9429C15.1139 20.9347 15.0781 20.92 15.0534 20.9103C15.0288 20.9007 14.9921 20.8855 14.972 20.8766C14.9518 20.8677 14.9175 20.8539 14.8956 20.846C14.8738 20.8381 14.8317 20.8177 14.802 20.8007C14.7723 20.7837 14.7205 20.7542 14.6869 20.7352C14.6218 20.6983 14.5063 20.6252 14.4995 20.6165C14.4973 20.6136 14.4716 20.5957 14.4425 20.5767C14.4134 20.5577 14.384 20.5363 14.3773 20.5293C14.3706 20.5222 14.3523 20.5078 14.3366 20.4972C14.3209 20.4866 14.2952 20.4652 14.2796 20.4497C14.2639 20.4341 14.2382 20.4126 14.2225 20.4018C14.1856 20.3765 13.9882 20.184 13.962 20.1479C13.951 20.1326 13.9252 20.104 13.9048 20.0843C13.8844 20.0647 13.8589 20.0361 13.848 20.0208C13.8371 20.0055 13.8224 19.9876 13.8152 19.9811C13.8081 19.9745 13.7934 19.9566 13.7827 19.9414C13.7719 19.9261 13.7609 19.9118 13.7582 19.9096C13.7555 19.9074 13.7445 19.8931 13.7338 19.8778C13.723 19.8625 13.712 19.8482 13.7093 19.8461C13.7067 19.8439 13.6957 19.8296 13.6849 19.8143C13.6741 19.799 13.663 19.7847 13.6601 19.7825C13.6572 19.7803 13.6147 19.7196 13.5657 19.6475C13.4865 19.5312 13.43 19.4413 13.3259 19.2663C13.2896 19.2051 13.0784 18.787 13.0422 18.7043C13.0283 18.6727 13.0063 18.6226 12.9934 18.5932C12.9804 18.5637 12.9621 18.5208 12.9527 18.4978C12.9231 18.4261 12.9015 18.3741 12.886 18.337C12.8551 18.2633 12.7491 17.9566 12.6924 17.7771C12.6744 17.7203 12.6499 17.6434 12.6378 17.6063C12.6257 17.5692 12.6124 17.5245 12.6083 17.507C12.6008 17.4757 12.5918 17.44 12.5767 17.3819C12.5724 17.3656 12.5654 17.3388 12.5611 17.3224C12.5569 17.306 12.5494 17.2765 12.5445 17.2569C12.5347 17.2175 12.5236 17.1743 12.511 17.1258C12.5064 17.1083 12.4995 17.078 12.4956 17.0583C12.4917 17.0386 12.4843 17.0065 12.4793 16.9868C12.4743 16.9672 12.4667 16.9341 12.4625 16.9134C12.4583 16.8926 12.4512 16.8578 12.4467 16.8359C12.4422 16.8141 12.4349 16.7783 12.4304 16.7565C12.4083 16.6489 12.4047 16.6301 12.3975 16.5877C12.3932 16.5626 12.3859 16.5197 12.3813 16.4924C12.3766 16.4651 12.3694 16.4195 12.3653 16.3911C12.3611 16.3628 12.3537 16.3163 12.3488 16.2879C12.344 16.2595 12.3366 16.2059 12.3324 16.1688C12.3283 16.1316 12.321 16.0709 12.3163 16.0337C12.3115 15.9966 12.3042 15.9287 12.2999 15.8828C12.2957 15.837 12.2883 15.7619 12.2835 15.716C12.2494 15.3897 12.2494 14.3135 12.2835 14.0243C12.2884 13.9828 12.2958 13.9078 12.2999 13.8575C12.304 13.8073 12.3113 13.7394 12.3162 13.7066C12.3211 13.6739 12.3285 13.6167 12.3325 13.5796C12.3366 13.5424 12.344 13.4888 12.3488 13.4604C12.3537 13.432 12.3611 13.3856 12.3653 13.3572C12.3694 13.3288 12.3766 13.2832 12.3813 13.2559C12.3859 13.2286 12.3932 13.1857 12.3975 13.1606C12.4062 13.1096 12.4144 13.0678 12.4465 12.9124C12.4505 12.8928 12.458 12.8606 12.463 12.8409C12.4681 12.8213 12.4751 12.7891 12.4786 12.7694C12.4821 12.7498 12.491 12.7176 12.4983 12.698C12.5057 12.6783 12.5117 12.6538 12.5118 12.6434C12.5118 12.6331 12.519 12.6027 12.5276 12.5759C12.5363 12.5491 12.5475 12.5111 12.5527 12.4915C12.5617 12.4569 12.6191 12.2719 12.6346 12.2274C12.6388 12.2154 12.6459 12.1948 12.6504 12.1817C12.6691 12.127 12.6777 12.1033 12.6993 12.0467C12.7118 12.0139 12.7297 11.9684 12.7391 11.9454C12.7485 11.9225 12.764 11.885 12.7734 11.862C12.7828 11.8391 12.7956 11.807 12.8019 11.7906C12.8223 11.7368 12.9857 11.4245 13.0167 11.3797C13.0335 11.3556 13.0531 11.3246 13.0604 11.3108C13.0676 11.297 13.0784 11.2809 13.0842 11.2751C13.0901 11.2692 13.1037 11.2519 13.1146 11.2366C13.1254 11.2213 13.1365 11.207 13.1391 11.2048C13.1418 11.2026 13.1528 11.1883 13.1636 11.173C13.1743 11.1578 13.189 11.1399 13.1961 11.1333C13.2033 11.1268 13.2181 11.1089 13.2291 11.0936C13.2549 11.0575 13.4687 10.8491 13.5057 10.8239C13.5214 10.8132 13.5397 10.7988 13.5464 10.7918C13.5531 10.7848 13.5715 10.7706 13.5872 10.7601C13.6028 10.7495 13.6175 10.7387 13.6197 10.7359C13.6261 10.7281 13.7636 10.6394 13.8315 10.5993C13.8921 10.5636 14.0271 10.4983 14.137 10.4515C14.1878 10.4299 14.2283 10.4149 14.3081 10.388C14.364 10.3692 14.4732 10.3367 14.5036 10.3298C14.5215 10.3258 14.5508 10.3189 14.5687 10.3144C14.5867 10.31 14.6178 10.3032 14.638 10.2994C14.6581 10.2956 14.6911 10.2883 14.7113 10.2831C14.7658 10.2693 14.8419 10.2647 14.8521 10.2746C14.8583 10.2807 14.8535 10.3056 14.8356 10.3608C14.8217 10.4035 14.8025 10.4652 14.7929 10.4979C14.7833 10.5307 14.772 10.5673 14.7678 10.5794C14.7636 10.5914 14.7567 10.611 14.7525 10.623C14.7454 10.6434 14.7381 10.6698 14.7181 10.7481C14.7137 10.7656 14.7033 10.8031 14.695 10.8315C14.6867 10.8599 14.6758 10.8992 14.6706 10.9189C14.6655 10.9385 14.6542 10.9765 14.6456 11.0033C14.6369 11.0301 14.6298 11.0605 14.6297 11.0708C14.6296 11.0812 14.6236 11.1057 14.6163 11.1254C14.609 11.145 14.6001 11.1772 14.5965 11.1969C14.593 11.2165 14.586 11.2487 14.581 11.2684C14.5759 11.288 14.5686 11.3202 14.5647 11.3398C14.5607 11.3595 14.5534 11.3917 14.5483 11.4113C14.5432 11.431 14.5358 11.4667 14.5318 11.4907C14.5221 11.5503 14.5105 11.6069 14.4993 11.6496C14.4941 11.6692 14.4868 11.7086 14.483 11.7369C14.4791 11.7653 14.4719 11.8082 14.4668 11.8323C14.4618 11.8563 14.4545 11.9027 14.4506 11.9355C14.4467 11.9683 14.4394 12.0147 14.4343 12.0388C14.4292 12.0628 14.4217 12.1128 14.4176 12.1499C14.4136 12.1871 14.4064 12.2478 14.4017 12.285C14.3885 12.3898 14.3776 12.4884 14.3702 12.5709C14.3664 12.6124 14.3611 12.6535 14.3583 12.6622C14.353 12.679 14.3469 12.7656 14.3368 12.968C14.3334 13.0357 14.3284 13.1 14.3257 13.111C14.3157 13.1501 14.31 13.3755 14.309 13.7622L14.3081 14.1554L15.4974 14.1614C16.1515 14.1647 17.2274 14.1682 17.8882 14.1693L19.0897 14.1713L19.0957 13.7861C19.099 13.5742 19.1054 13.2919 19.11 13.1586C19.1442 12.1694 19.1445 11.4782 19.1108 11.2247C19.0854 11.0333 19.0832 11.0216 19.0547 10.9379C19.0287 10.8613 18.9909 10.7952 18.9511 10.7564C18.8933 10.7 18.8575 10.6854 18.7334 10.6675C18.7101 10.6641 18.7028 10.6594 18.7028 10.6477C18.7028 10.63 18.7767 10.5197 18.8085 10.49C18.8202 10.4791 18.8387 10.4576 18.8497 10.4424C18.8754 10.4065 18.9432 10.3404 18.9798 10.3156C18.9955 10.3049 19.0138 10.2904 19.0205 10.2833C19.035 10.268 19.1316 10.205 19.213 10.1577C19.2779 10.12 19.3149 10.1051 19.4563 10.0596C19.5951 10.0149 19.6006 10.0135 19.6361 10.0133C19.6537 10.0133 19.6736 10.0097 19.6803 10.0054C19.6961 9.99523 20.0824 10.0006 20.1487 10.0119ZM11.9258 12.3116C11.9218 12.3218 11.8926 12.3808 11.8609 12.4425C11.8291 12.5043 11.7981 12.5683 11.7918 12.5847C11.7856 12.6011 11.7723 12.6342 11.7623 12.6583C11.7454 12.6991 11.6831 12.8789 11.6478 12.9889C11.6392 13.0157 11.6321 13.0461 11.632 13.0564C11.6319 13.0668 11.6258 13.0913 11.6185 13.111C11.6111 13.1306 11.6021 13.1664 11.5986 13.1904C11.595 13.2144 11.5881 13.2537 11.5832 13.2778C11.5698 13.3437 11.5589 13.4099 11.5503 13.4783C11.546 13.5122 11.5387 13.5693 11.5341 13.6054C11.5294 13.6414 11.5221 13.7084 11.5179 13.7543C11.5136 13.8002 11.5062 13.8788 11.5015 13.929C11.4844 14.1102 11.4766 14.4106 11.4764 14.898C11.4763 15.3739 11.4823 15.5695 11.5016 15.716C11.5065 15.7532 11.5139 15.8211 11.518 15.867C11.5221 15.9128 11.5292 15.9754 11.5338 16.0059C11.5418 16.0586 11.5489 16.1073 11.5665 16.2303C11.5707 16.2598 11.5783 16.3036 11.5832 16.3276C11.5882 16.3516 11.5956 16.3945 11.5995 16.4229C11.6035 16.4513 11.6108 16.4942 11.6157 16.5182C11.6207 16.5422 11.6279 16.5816 11.6319 16.6056C11.6358 16.6296 11.6432 16.6654 11.6483 16.685C11.6534 16.7047 11.661 16.7377 11.6652 16.7585C11.6694 16.7792 11.6763 16.8132 11.6805 16.8339C11.6847 16.8547 11.6922 16.8877 11.6973 16.9074C11.7023 16.9271 11.7097 16.9592 11.7136 16.9789C11.7175 16.9985 11.7248 17.0307 11.7299 17.0504C11.7349 17.07 11.742 17.1022 11.7456 17.1218C11.7492 17.1415 11.7584 17.1772 11.7661 17.2013C11.7738 17.2253 11.7834 17.2583 11.7875 17.2747C11.7972 17.3132 11.8091 17.3594 11.8201 17.4018C11.8342 17.4561 11.8757 17.5976 11.9172 17.7334C11.9478 17.8335 12.1288 18.3636 12.1599 18.4442C12.1734 18.4792 12.1924 18.5292 12.202 18.5554C12.2209 18.6065 12.2396 18.6521 12.2757 18.7341C12.2881 18.7625 12.3064 18.8054 12.3164 18.8294C12.3343 18.8727 12.3551 18.9209 12.4058 19.0359C12.4385 19.1103 12.6726 19.5695 12.7137 19.6401C12.7613 19.7219 12.9954 20.0748 13.0083 20.0843C13.0112 20.0865 13.0225 20.1008 13.0332 20.1161C13.044 20.1314 13.055 20.1457 13.0577 20.1479C13.0603 20.15 13.0714 20.1643 13.0822 20.1796C13.093 20.1949 13.1113 20.2164 13.1228 20.2273C13.1344 20.2382 13.1527 20.2596 13.1636 20.2749C13.1744 20.2902 13.1927 20.3117 13.2043 20.3226C13.2158 20.3335 13.2343 20.355 13.2453 20.3702C13.2713 20.4064 13.5664 20.6941 13.6034 20.7194C13.6191 20.7302 13.6411 20.7482 13.6523 20.7594C13.6635 20.7707 13.6855 20.7885 13.7012 20.7991C13.7169 20.8096 13.7352 20.8239 13.7419 20.8309C13.7486 20.8379 13.767 20.8522 13.7827 20.8627C13.7983 20.8732 13.813 20.884 13.8152 20.8867C13.8175 20.8894 13.8431 20.9072 13.8723 20.9262C13.9014 20.9452 13.927 20.9631 13.9293 20.966C13.9359 20.9745 14.0512 21.0476 14.1126 21.0822C14.1439 21.0999 14.1952 21.129 14.2266 21.1468C14.3184 21.1988 14.5337 21.298 14.6787 21.3551C14.7033 21.3648 14.7363 21.3783 14.752 21.3852C14.7677 21.392 14.8016 21.4006 14.8274 21.4042C14.9635 21.4232 14.982 21.427 15.0303 21.4462C15.0378 21.4492 15.0534 21.4655 15.065 21.4826C15.1003 21.5347 15.0928 21.6184 15.046 21.6916C15.0243 21.7257 14.9159 21.7993 14.8415 21.8305C14.8169 21.8408 14.7803 21.8565 14.7602 21.8654C14.7029 21.8907 14.6437 21.9111 14.6275 21.9111C14.6194 21.9111 14.601 21.917 14.5867 21.9243C14.5487 21.9436 14.4715 21.9595 14.2592 21.9917C14.1846 22.0031 13.7279 22.0026 13.6279 21.9911C13.5853 21.9862 13.5157 21.9789 13.4731 21.9749C13.4305 21.9709 13.3719 21.9637 13.3428 21.9589C13.3137 21.9541 13.266 21.947 13.2369 21.943C13.2078 21.939 13.1647 21.932 13.1412 21.9274C13.1176 21.9228 13.081 21.9156 13.0597 21.9116C13.0384 21.9075 13.0045 21.9001 12.9843 21.8952C12.9642 21.8903 12.9312 21.8831 12.911 21.8793C12.8909 21.8755 12.8588 21.8685 12.8398 21.8639C12.8207 21.8593 12.7905 21.8519 12.7726 21.8475C12.7546 21.8431 12.7262 21.8366 12.7094 21.833C12.6926 21.8293 12.6671 21.8204 12.6528 21.8131C12.6385 21.8058 12.6209 21.7999 12.6138 21.7999C12.6001 21.7999 12.3539 21.7211 12.3073 21.7019C12.2921 21.6956 12.2596 21.6825 12.2349 21.6728C12.0135 21.5859 11.7137 21.4357 11.5588 21.3341C11.5118 21.3033 11.4617 21.2722 11.4476 21.2651C11.4334 21.258 11.4169 21.2475 11.4109 21.2417C11.4049 21.2359 11.3761 21.2155 11.347 21.1964C11.3179 21.1773 11.2886 21.1558 11.2818 21.1488C11.2751 21.1417 11.2568 21.1273 11.2411 21.1168C11.2254 21.1063 11.2108 21.0956 11.2085 21.093C11.2063 21.0904 11.1916 21.0796 11.1759 21.069C11.1603 21.0585 11.1346 21.0371 11.1189 21.0215C11.1032 21.0059 11.0776 20.9844 11.0619 20.9736C11.0247 20.9481 10.6483 20.5811 10.6223 20.545C10.6113 20.5297 10.5928 20.5082 10.5813 20.4973C10.5697 20.4864 10.5514 20.465 10.5406 20.4497C10.5298 20.4344 10.5151 20.4165 10.508 20.41C10.5008 20.4034 10.4862 20.3855 10.4754 20.3702C10.4646 20.355 10.45 20.3371 10.4428 20.3305C10.4357 20.324 10.421 20.3061 10.4102 20.2908C10.3995 20.2755 10.3883 20.2612 10.3854 20.2591C10.3825 20.2569 10.3327 20.1854 10.2747 20.1002C10.1811 19.9627 10.1252 19.8743 10.0187 19.6951C9.9841 19.637 9.8545 19.3789 9.81729 19.2941C9.76737 19.1802 9.75832 19.1568 9.72677 19.0598C9.67299 18.8943 9.66707 18.8745 9.66025 18.8374C9.65663 18.8177 9.64946 18.7856 9.64431 18.7659C9.63916 18.7462 9.63172 18.7069 9.62779 18.6785C9.62386 18.6501 9.61634 18.6037 9.61108 18.5753C9.59855 18.5077 9.59833 18.1197 9.61079 18.0531C9.61589 18.0258 9.62346 17.9829 9.6276 17.9578C9.63174 17.9327 9.6393 17.896 9.64439 17.8764C9.6495 17.8567 9.65643 17.8245 9.65979 17.8049C9.66316 17.7852 9.67209 17.7577 9.67965 17.7437C9.6872 17.7297 9.69338 17.7118 9.69338 17.7039C9.69338 17.6901 9.70571 17.6556 9.74312 17.5646C9.75254 17.5417 9.76543 17.5093 9.77175 17.4927C9.79673 17.4269 9.93707 17.1849 9.96735 17.1554C9.97353 17.1494 9.9825 17.1373 9.98727 17.1286C9.99809 17.1089 10.0898 17.0504 10.1099 17.0504C10.1252 17.0504 10.1496 17.0872 10.1496 17.1105C10.1496 17.1178 10.1566 17.1456 10.1653 17.1724C10.1739 17.1992 10.1852 17.2372 10.1904 17.2569C10.2314 17.4136 10.3701 17.8362 10.4575 18.0709C10.4753 18.119 10.4979 18.1798 10.5076 18.206C10.5173 18.2322 10.5324 18.2706 10.541 18.2913C10.5497 18.3121 10.5646 18.3478 10.574 18.3708C10.5989 18.4311 10.6711 18.5952 10.7216 18.7063C10.7674 18.8072 10.9805 19.2236 11.0324 19.3139C11.1359 19.4938 11.154 19.5237 11.2899 19.7388C11.3336 19.8079 11.4212 19.936 11.4284 19.9414C11.4313 19.9435 11.4497 19.9686 11.4692 19.997C11.4887 20.0253 11.5069 20.0504 11.5097 20.0526C11.5125 20.0547 11.5236 20.069 11.5344 20.0843C11.5451 20.0996 11.5561 20.1139 11.5588 20.1161C11.5615 20.1183 11.5725 20.1326 11.5833 20.1479C11.594 20.1631 11.6087 20.181 11.6158 20.1876C11.623 20.1941 11.6377 20.212 11.6485 20.2273C11.6593 20.2426 11.6776 20.264 11.6891 20.2749C11.7007 20.2859 11.719 20.3073 11.7299 20.3226C11.7407 20.3379 11.7591 20.3593 11.7706 20.3702C11.7822 20.3812 11.8006 20.4026 11.8116 20.4179C11.8376 20.4541 12.1489 20.7576 12.186 20.783C12.2017 20.7937 12.2237 20.8117 12.2349 20.823C12.2461 20.8342 12.2681 20.8521 12.2838 20.8626C12.2995 20.8731 12.3178 20.8875 12.3245 20.8944C12.3312 20.9014 12.3496 20.9157 12.3653 20.9262C12.3809 20.9367 12.3956 20.9474 12.3978 20.95C12.4001 20.9526 12.4147 20.9634 12.4304 20.974C12.4461 20.9846 12.4651 20.9987 12.4726 21.0054C12.5265 21.0534 12.9797 21.2916 13.0172 21.2916C13.0264 21.2916 13.0475 21.298 13.0641 21.306C13.0935 21.32 13.1753 21.3458 13.2409 21.3618C13.2589 21.3661 13.2891 21.3741 13.3081 21.3795C13.3388 21.3883 13.3445 21.3877 13.359 21.375C13.3774 21.3588 13.3806 21.3195 13.3661 21.2885C13.3577 21.2705 13.2354 21.1847 13.1742 21.1538C13.1602 21.1468 13.1439 21.1363 13.1379 21.1305C13.1318 21.1247 13.1031 21.1043 13.074 21.0852C13.0448 21.0661 13.0155 21.0446 13.0088 21.0376C13.0021 21.0305 12.9837 21.0161 12.9681 21.0056C12.9524 20.9951 12.9377 20.9844 12.9355 20.9818C12.9332 20.9792 12.9186 20.9684 12.9029 20.9578C12.8872 20.9472 12.8579 20.9223 12.8377 20.9024C12.8176 20.8825 12.7882 20.8574 12.7726 20.8466C12.7355 20.8211 12.4405 20.5335 12.4143 20.4973C12.4032 20.482 12.3738 20.4499 12.349 20.4258C12.3241 20.4018 12.2949 20.3696 12.284 20.3544C12.2731 20.3391 12.262 20.3248 12.2594 20.3226C12.2567 20.3204 12.2457 20.3061 12.2348 20.2908C12.224 20.2755 12.2057 20.2541 12.1942 20.2432C12.1826 20.2322 12.1644 20.2108 12.1535 20.1955C12.1427 20.1802 12.1317 20.1659 12.129 20.1637C12.1264 20.1616 12.1154 20.1473 12.1046 20.132C12.0938 20.1167 12.0827 20.1024 12.0799 20.1002C12.0771 20.098 12.0589 20.073 12.0394 20.0446C12.0199 20.0162 12.0015 19.9912 11.9984 19.989C11.983 19.9781 11.7675 19.6504 11.6745 19.4966C11.5327 19.2619 11.3275 18.8561 11.2257 18.609C11.2163 18.5861 11.2008 18.5486 11.1913 18.5256C11.1818 18.5027 11.1676 18.4679 11.1597 18.4482C11.1517 18.4285 11.1377 18.3946 11.1285 18.3728C11.0936 18.29 10.9314 17.8216 10.8983 17.7076C10.8897 17.6781 10.8756 17.6299 10.867 17.6004C10.8513 17.5465 10.8394 17.5025 10.8244 17.4435C10.82 17.426 10.8093 17.3898 10.8007 17.363C10.792 17.3363 10.7849 17.3059 10.7848 17.2955C10.7848 17.2852 10.7787 17.2606 10.7714 17.241C10.7641 17.2213 10.7552 17.1891 10.7517 17.1695C10.7481 17.1498 10.7411 17.1177 10.7361 17.098C10.731 17.0784 10.7235 17.0453 10.7193 17.0245C10.7151 17.0038 10.708 16.9689 10.7035 16.9471C10.6814 16.8396 10.6778 16.8209 10.6709 16.7803C10.6668 16.7563 10.6595 16.717 10.6545 16.693C10.6496 16.6689 10.6423 16.626 10.6383 16.5976C10.6343 16.5693 10.627 16.5264 10.622 16.5023C10.6042 16.4163 10.5747 16.1862 10.5565 15.9901C10.5352 15.762 10.5312 15.6541 10.5312 15.311C10.5312 14.9146 10.5395 14.7597 10.5727 14.5366C10.5773 14.506 10.5845 14.456 10.5888 14.4254C10.5931 14.3948 10.6004 14.352 10.605 14.3301C10.6162 14.2767 10.628 14.2193 10.6375 14.1713C10.6419 14.1494 10.6493 14.1164 10.6541 14.0978C10.6589 14.0792 10.6659 14.0506 10.6698 14.0343C10.6737 14.0179 10.6828 13.9884 10.6901 13.9687C10.6973 13.9491 10.7033 13.9266 10.7034 13.9188C10.7034 13.911 10.7108 13.8906 10.7198 13.8734C10.7287 13.8563 10.7361 13.8351 10.7361 13.8263C10.7361 13.8175 10.743 13.795 10.7515 13.7764C10.76 13.7577 10.775 13.7227 10.7849 13.6987C10.8478 13.546 10.9308 13.3839 11.0195 13.24C11.0516 13.188 11.1442 13.0528 11.1514 13.0474C11.1544 13.0452 11.1728 13.0202 11.1923 12.9918C11.2118 12.9634 11.2337 12.9348 11.2409 12.9283C11.2482 12.9217 11.263 12.9039 11.2738 12.8886C11.2846 12.8733 11.3029 12.8519 11.3144 12.8409C11.326 12.83 11.3444 12.8086 11.3554 12.7933C11.3664 12.778 11.4378 12.7047 11.514 12.6304C11.5902 12.5561 11.6653 12.4866 11.681 12.4758C11.6967 12.4651 11.7187 12.4471 11.7299 12.4359C11.7411 12.4246 11.7631 12.4068 11.7787 12.3962C11.7944 12.3857 11.8128 12.3714 11.8195 12.3644C11.8262 12.3574 11.8445 12.3431 11.8602 12.3325C11.8759 12.3219 11.8936 12.3087 11.8995 12.3031C11.9183 12.2853 11.9341 12.2903 11.9258 12.3116Z" fill="#BEA645"/>
</svg>
