<svg width="32" height="32" viewBox="0 0 32 32" fill="none" xmlns="http://www.w3.org/2000/svg">
<rect width="32" height="32" rx="16" fill="#F2F2F2"/>
<path d="M13.4128 11.4258H19.1993V21.9408H13.4128V11.4258Z" fill="#FF5F00"/>
<path d="M13.7761 16.688C13.7761 14.5515 14.768 12.6566 16.2927 11.4305C15.1721 10.5388 13.7577 10 12.2146 10C8.55907 10 5.60156 12.991 5.60156 16.688C5.60156 20.3849 8.55907 23.376 12.2146 23.376C13.7577 23.376 15.1721 22.8372 16.2927 21.9455C14.768 20.7379 13.7761 18.8244 13.7761 16.688Z" fill="#EB001B"/>
<path d="M27.0039 16.688C27.0039 20.3849 24.0464 23.376 20.3908 23.376C18.8478 23.376 17.4333 22.8372 16.3128 21.9455C17.8558 20.7193 18.8294 18.8244 18.8294 16.688C18.8294 14.5515 17.8375 12.6566 16.3128 11.4305C17.4333 10.5388 18.8478 10 20.3908 10C24.0464 10 27.0039 13.0096 27.0039 16.688Z" fill="#F79E1B"/>
</svg>
