<svg width="24" height="24" viewBox="0 0 24 24" fill="none" xmlns="http://www.w3.org/2000/svg">
<rect width="24" height="24" rx="12" fill="#F2F2F2"/>
<path d="M9.40625 7.2793H14.5974V16.7126H9.40625V7.2793Z" fill="#FF5F00"/>
<path d="M9.73204 12C9.73204 10.0833 10.622 8.38334 11.9898 7.28334C10.9845 6.48334 9.71556 6 8.33124 6C5.05172 6 2.39844 8.68333 2.39844 12C2.39844 15.3167 5.05172 18 8.33124 18C9.71556 18 10.9845 17.5167 11.9898 16.7167C10.622 15.6333 9.73204 13.9167 9.73204 12Z" fill="#EB001B"/>
<path d="M21.5992 12C21.5992 15.3167 18.9459 18 15.6664 18C14.2821 18 13.0131 17.5167 12.0078 16.7167C13.3921 15.6167 14.2656 13.9167 14.2656 12C14.2656 10.0833 13.3757 8.38334 12.0078 7.28334C13.0131 6.48334 14.2821 6 15.6664 6C18.9459 6 21.5992 8.7 21.5992 12Z" fill="#F79E1B"/>
</svg>
