<svg width="24" height="24" viewBox="0 0 24 24" fill="none" xmlns="http://www.w3.org/2000/svg">
<rect width="24" height="24" rx="12" fill="#F2F2F2"/>
<g clip-path="url(#clip0_465_3069)">
<path d="M20.5289 9.31084C20.1151 8.93468 19.5885 8.70898 18.9866 8.70898H14.4727C14.4727 8.89707 14.5103 9.04753 14.5479 9.23561C14.5479 9.27323 14.5479 9.31085 14.5855 9.34847V9.38609C14.9617 10.5898 16.0901 11.455 17.3691 11.455H21.2436C21.2436 11.3045 21.2812 11.1917 21.2812 11.0412C21.2812 10.3641 21.0179 9.72463 20.5289 9.31084Z" fill="url(#paint0_linear_465_3069)"/>
<path d="M21.244 11.832H14.5859V15.2927H16.6925V13.3367H17.5952L18.799 15.2927H21.2064L19.8146 13.1862C20.4164 12.9229 20.9807 12.4339 21.244 11.832Z" fill="#006848"/>
<path d="M7.51426 9.57416L6.64907 12.5835H6.49862L5.63345 9.57416C5.48298 9.08515 5.03159 8.70898 4.50496 8.70898H2.39844V15.2918H4.50496V11.3797H4.65541L5.85914 15.2542H7.36379L8.56751 11.3797H8.71799V15.2542H10.8245V8.70898H8.68035C8.11609 8.70898 7.66473 9.08515 7.51426 9.57416Z" fill="#006848"/>
<path d="M13.755 8.70898H11.6484V15.2918H13.755V8.70898Z" fill="#006848"/>
</g>
<defs>
<linearGradient id="paint0_linear_465_3069" x1="14.4697" y1="10.0932" x2="21.2601" y2="10.0932" gradientUnits="userSpaceOnUse">
<stop stop-color="#02AFFF"/>
<stop offset="1" stop-color="#1F5BD7"/>
</linearGradient>
<clipPath id="clip0_465_3069">
<rect width="19.2" height="6.58286" fill="white" transform="translate(2.39844 8.70898)"/>
</clipPath>
</defs>
</svg>
