<svg width="24" height="24" viewBox="0 0 24 24" fill="none" xmlns="http://www.w3.org/2000/svg">
<g clip-path="url(#clip0_465_3085)">
<rect width="24" height="24" rx="12" fill="#F2F2F2"/>
<path d="M1.88858 0H11.9626C13.3689 0 14.2435 1.08959 13.9155 2.43081L9.22527 21.5729C8.89428 22.9095 7.48631 24 6.07908 24H-3.99398C-5.39826 24 -6.27486 22.9095 -5.94681 21.5729L-1.25466 2.43081C-0.926608 1.08959 0.480619 0 1.88858 0Z" fill="#E21836"/>
<path d="M11.3592 0H22.169C23.4809 0 22.8893 1.08959 22.5807 2.43081L18.205 21.5729C17.898 22.9095 17.9938 24 16.6791 24H5.86926C4.55458 24 3.74098 22.9095 4.04983 21.5729L8.42531 2.43081C8.73599 1.08959 10.0463 0 11.3592 0Z" fill="#00447C"/>
<path d="M21.8878 0H31.9623C33.3706 0 34.2452 1.08959 33.9145 2.43081L29.2248 21.5729C28.8938 22.9095 27.4848 24 26.0768 24H16.007C14.598 24 13.724 22.9095 14.0541 21.5729L18.7444 2.43081C19.0725 1.08959 20.4788 0 21.8878 0Z" fill="#007B84"/>
<path d="M5.66506 7.74493C5.0323 7.75154 4.84542 7.74493 4.78573 7.73047C4.76278 7.84228 4.33459 9.86383 4.33459 9.86383C4.24265 10.2725 4.17576 10.5638 3.94854 10.7519C3.81956 10.8612 3.66898 10.914 3.4944 10.914C3.21379 10.914 3.05031 10.7711 3.02286 10.5001L3.01761 10.407C3.01761 10.407 3.1031 9.85967 3.1031 9.8566C3.1031 9.8566 3.55124 8.01592 3.63148 7.77261C3.63568 7.75877 3.63688 7.75154 3.63793 7.74493C2.76565 7.75277 2.61102 7.74493 2.60037 7.73047C2.59452 7.75031 2.57292 7.86443 2.57292 7.86443L2.11533 9.93903L2.07604 10.115L2 10.6905C2 10.8612 2.0327 11.0006 2.09779 11.1184C2.30626 11.492 2.90093 11.5479 3.23733 11.5479C3.67078 11.5479 4.07737 11.4535 4.35214 11.2811C4.82907 10.9921 4.95386 10.5404 5.06514 10.139L5.11673 9.93304C5.11673 9.93304 5.57837 8.0213 5.65681 7.77261C5.65981 7.75877 5.66101 7.75154 5.66506 7.74493ZM7.23576 9.28714C7.12447 9.28714 6.9211 9.31482 6.73842 9.40664C6.67213 9.44155 6.60944 9.48185 6.5433 9.52199L6.60299 9.30098L6.5703 9.26376C6.1829 9.3442 6.09621 9.35496 5.73836 9.40664L5.70836 9.4271C5.66682 9.78037 5.62992 10.046 5.47589 10.7404C5.41725 10.9963 5.35636 11.2547 5.29532 11.51L5.31181 11.5425C5.67851 11.5226 5.7898 11.5226 6.10851 11.528L6.1343 11.4992C6.1748 11.2865 6.18005 11.2367 6.26974 10.8059C6.31188 10.6017 6.39977 10.1529 6.44311 9.99308C6.52275 9.95525 6.60134 9.91803 6.67633 9.91803C6.85496 9.91803 6.83321 10.0778 6.82631 10.1415C6.81866 10.2484 6.75357 10.5975 6.68683 10.8973L6.64229 11.0907C6.61124 11.2336 6.5772 11.3725 6.54615 11.5142L6.55965 11.5425C6.9211 11.5226 7.03133 11.5226 7.33999 11.528L7.37629 11.4992C7.43208 11.167 7.44843 11.0781 7.54742 10.5944L7.59721 10.3722C7.69395 9.93725 7.74254 9.7167 7.66935 9.53706C7.59196 9.33574 7.40628 9.28714 7.23576 9.28714ZM8.9904 9.74252C8.79828 9.78036 8.67575 9.80558 8.55396 9.82189C8.43323 9.84173 8.31549 9.85972 8.12982 9.88617L8.11512 9.89986L8.10162 9.91078C8.08227 10.0526 8.06878 10.1752 8.04313 10.3193C8.02138 10.4683 7.98794 10.6376 7.93349 10.881C7.89135 11.0672 7.8696 11.1321 7.84561 11.1976C7.82221 11.2631 7.79641 11.3268 7.74902 11.51L7.76012 11.5269L7.76942 11.5424C7.94294 11.534 8.05648 11.528 8.17316 11.5269C8.2897 11.5226 8.41043 11.5269 8.59731 11.528L8.61365 11.5143L8.6312 11.4992C8.6582 11.334 8.66225 11.2896 8.67874 11.209C8.69509 11.1226 8.72329 11.0029 8.79243 10.6833C8.82512 10.5332 8.86157 10.3836 8.89546 10.2304C8.93071 10.0778 8.96761 9.92755 9.0027 9.77744L8.99745 9.75929L8.9904 9.74252ZM8.9945 9.12852C8.81992 9.02286 8.51351 9.05639 8.30729 9.20235C8.10167 9.34538 8.07827 9.5484 8.25225 9.65544C8.42382 9.75818 8.73143 9.72758 8.93586 9.58039C9.14103 9.43428 9.16668 9.23311 8.9945 9.12852ZM10.0503 11.5756C10.4035 11.5756 10.7655 11.4757 11.038 11.1795C11.2477 10.9393 11.3439 10.5819 11.3772 10.4347C11.4856 9.94682 11.4012 9.71904 11.2951 9.58031C11.134 9.36884 10.8494 9.30101 10.5541 9.30101C10.3765 9.30101 9.95354 9.31901 9.62314 9.63137C9.38587 9.85669 9.27623 10.1624 9.21009 10.4556C9.14335 10.7543 9.06656 11.292 9.54875 11.492C9.69753 11.5576 9.912 11.5756 10.0503 11.5756ZM10.0227 10.4779C10.1041 10.1085 10.2003 9.7984 10.4456 9.7984C10.6379 9.7984 10.6519 10.0291 10.5664 10.3998C10.5511 10.482 10.4809 10.7879 10.3859 10.9182C10.3196 11.0143 10.2412 11.0726 10.1545 11.0726C10.1287 11.0726 9.97529 11.0726 9.97289 10.839C9.97169 10.7237 9.99464 10.6058 10.0227 10.4779ZM12.2601 11.528L12.2877 11.4993C12.3268 11.2866 12.3333 11.2366 12.42 10.806C12.4633 10.6017 12.553 10.1529 12.5951 9.99313C12.6749 9.95514 12.7522 9.91792 12.8296 9.91792C13.007 9.91792 12.9854 10.0777 12.9783 10.1414C12.9719 10.2484 12.9068 10.5974 12.8389 10.8972L12.7967 11.0906C12.7645 11.2337 12.7294 11.3724 12.6983 11.5142L12.7118 11.5425C13.0745 11.5227 13.1805 11.5227 13.491 11.528L13.5285 11.4993C13.5829 11.1669 13.5976 11.078 13.6996 10.5945L13.7482 10.3721C13.8454 9.93714 13.8946 9.71675 13.8226 9.53711C13.7429 9.33579 13.5561 9.28718 13.3879 9.28718C13.2765 9.28718 13.0721 9.31471 12.8905 9.40669C12.8255 9.4416 12.7604 9.48174 12.6965 9.52204L12.7522 9.30103L12.7223 9.26365C12.3351 9.34424 12.2466 9.35501 11.8892 9.40669L11.8617 9.42714C11.8184 9.78042 11.7832 10.0459 11.6291 10.7404C11.5705 10.9964 11.5096 11.2547 11.4487 11.5101L11.465 11.5425C11.8323 11.5227 11.942 11.5227 12.2601 11.528ZM14.9246 11.5424C14.9474 11.4283 15.084 10.7519 15.084 10.7519C15.084 10.7519 15.1993 10.2556 15.2064 10.2376C15.2064 10.2376 15.2427 10.1859 15.279 10.1655H15.3324C15.8361 10.1655 16.405 10.1655 16.8509 9.8291C17.1543 9.5984 17.3617 9.25773 17.4543 8.8437C17.4783 8.7422 17.496 8.62146 17.496 8.50073C17.496 8.34216 17.4649 8.18529 17.3752 8.06271C17.1479 7.7365 16.6951 7.7305 16.1724 7.72804L15.9147 7.7305C15.2457 7.73896 14.9774 7.7365 14.8671 7.72266C14.8578 7.77264 14.8403 7.86154 14.8403 7.86154L14.6006 9.00242C14.6006 9.00242 14.0271 11.4242 14.0001 11.5383C14.5843 11.531 14.8238 11.531 14.9246 11.5424ZM15.3686 9.51904C15.3686 9.51904 15.6235 8.3823 15.6223 8.38661L15.6305 8.32832L15.6341 8.28387L15.7359 8.29464C15.7359 8.29464 16.2615 8.34093 16.2738 8.34216C16.4812 8.42444 16.5667 8.63653 16.507 8.91337C16.4526 9.16637 16.2925 9.37908 16.0869 9.48182C15.9176 9.56887 15.7102 9.5761 15.4964 9.5761H15.3582L15.3686 9.51904ZM16.9552 10.4989C16.8879 10.7933 16.8105 11.331 17.2903 11.5226C17.4432 11.5894 17.5803 11.6092 17.7196 11.602C17.8668 11.5938 18.0031 11.5182 18.1294 11.4093C18.118 11.454 18.1066 11.4988 18.0952 11.5437L18.1169 11.5725C18.462 11.5575 18.5691 11.5575 18.943 11.5605L18.9769 11.534C19.0315 11.2049 19.083 10.8853 19.2248 10.2556C19.294 9.95403 19.363 9.65535 19.4339 9.35498L19.4228 9.32191C19.0368 9.39528 18.9336 9.41096 18.5622 9.46495L18.534 9.48848C18.5303 9.51908 18.5264 9.54846 18.5228 9.57784C18.465 9.48217 18.3814 9.4005 18.2522 9.3496C18.0871 9.283 17.6992 9.36882 17.3658 9.68011C17.1316 9.90235 17.0191 10.2069 16.9552 10.4989ZM17.766 10.5169C17.8486 10.1541 17.9436 9.84714 18.1895 9.84714C18.3451 9.84714 18.427 9.99433 18.4103 10.2453C18.3971 10.3079 18.3829 10.3739 18.3659 10.4485C18.3413 10.5563 18.3146 10.6632 18.2887 10.7702C18.2623 10.8435 18.2315 10.9125 18.1978 10.9585C18.1345 11.0505 17.9839 11.1075 17.8972 11.1075C17.8726 11.1075 17.7208 11.1075 17.7156 10.8781C17.7144 10.7638 17.7373 10.6461 17.766 10.5169ZM22 9.31898L21.9702 9.28406C21.5882 9.36342 21.519 9.37603 21.1681 9.42464L21.1423 9.45109C21.1411 9.4554 21.14 9.46201 21.1382 9.46801L21.137 9.46201C20.8757 10.0801 20.8834 9.94679 20.6707 10.4334C20.6695 10.4113 20.6695 10.3974 20.6683 10.3739L20.6151 9.31898L20.5816 9.28406C20.1815 9.36342 20.172 9.37603 19.8025 9.42464L19.7737 9.45109C19.7696 9.4637 19.7696 9.47754 19.7672 9.49262L19.7696 9.498C19.8158 9.74008 19.8047 9.6861 19.8511 10.0681C19.8727 10.2556 19.9015 10.4442 19.9231 10.6293C19.9595 10.9393 19.9799 11.0918 20.0245 11.5648C19.7749 11.9871 19.7158 12.1469 19.4755 12.5175L19.4772 12.5212L19.308 12.7956C19.2887 12.8245 19.2711 12.8444 19.2465 12.8528C19.2195 12.8665 19.1844 12.869 19.1357 12.869H19.0419L18.9026 13.3442L19.3806 13.3527C19.6612 13.3515 19.8376 13.2169 19.9325 13.036L20.2331 12.5079H20.2283L20.2599 12.4706C20.4621 12.0243 22 9.31898 22 9.31898ZM16.9552 15.5606H16.7524L17.5029 13.015H17.7519L17.8309 12.7528L17.8386 13.0444C17.8293 13.2246 17.9675 13.3844 18.3308 13.358H18.7509L18.8955 12.8678H18.7374C18.6465 12.8678 18.6044 12.8443 18.6096 12.7939L18.602 12.4972H17.824V12.4987C17.5725 12.5041 16.8214 12.5235 16.6693 12.565C16.4853 12.6136 16.2914 12.7566 16.2914 12.7566L16.3676 12.4941H15.6399L15.4882 13.015L14.7277 15.5995H14.5801L14.4354 16.0861H15.8848L15.8362 16.2483H16.5504L16.5978 16.0861H16.7982L16.9552 15.5606ZM16.3605 13.5322C16.244 13.5653 16.0271 13.6656 16.0271 13.6656L16.22 13.015H16.7982L16.6587 13.489C16.6587 13.489 16.48 13.4998 16.3605 13.5322ZM16.3716 14.4617C16.3716 14.4617 16.19 14.485 16.0704 14.5127C15.9527 14.5493 15.7319 14.6647 15.7319 14.6647L15.9311 13.9876H16.5123L16.3716 14.4617ZM16.0477 15.5666H15.4677L15.6358 14.9952H16.214L16.0477 15.5666ZM17.4444 13.9876H18.2803L18.1602 14.3866H17.3131L17.1859 14.8228H17.9271L17.3659 15.6332C17.3266 15.6927 17.2914 15.7137 17.2522 15.7305C17.2129 15.751 17.1613 15.775 17.1017 15.775H16.896L16.7547 16.2527H17.2926C17.5721 16.2527 17.7373 16.1222 17.8592 15.9511L18.2441 15.4109L18.3267 15.9594C18.3442 16.0621 18.4162 16.1222 18.465 16.1456C18.5188 16.1733 18.5745 16.2208 18.653 16.2279C18.7373 16.2316 18.7982 16.2345 18.8387 16.2345H19.103L19.2617 15.6999H19.1574C19.0976 15.6999 18.9946 15.6896 18.977 15.6704C18.9595 15.647 18.9595 15.611 18.95 15.5562L18.8662 15.0066H18.5229L18.6734 14.8228H19.5189L19.6489 14.3866H18.8662L18.9881 13.9876H19.7684L19.9132 13.4956H17.5867L17.4444 13.9876ZM10.3836 15.6776L10.5787 15.012H11.3806L11.5272 14.5169H10.7245L10.847 14.1072H11.6314L11.7767 13.6278H9.81409L9.67176 14.1072H10.1177L9.99872 14.5169H9.55163L9.40345 15.0205H9.84919L9.58912 15.9011C9.55403 16.0177 9.60562 16.0621 9.63832 16.1163C9.67176 16.169 9.70566 16.2039 9.78185 16.2238C9.86044 16.2418 9.91428 16.2525 9.98747 16.2525H10.8916L11.0526 15.7041L10.6519 15.7605C10.5745 15.7605 10.3602 15.751 10.3836 15.6776ZM10.4755 12.4911L10.2723 12.8678C10.2288 12.95 10.1897 13.0011 10.1544 13.0246C10.1234 13.0445 10.0619 13.0528 9.97282 13.0528H9.86678L9.72505 13.5346H10.0772C10.2465 13.5346 10.3766 13.471 10.4387 13.4391C10.5054 13.4025 10.5229 13.4234 10.5745 13.3724L10.6935 13.2667H11.7931L11.9391 12.765H11.1341L11.2746 12.4911H10.4755ZM12.099 15.6873C12.0802 15.6596 12.0937 15.6109 12.1224 15.5094L12.423 14.4892H13.4922C13.648 14.4869 13.7605 14.4851 13.8337 14.4797C13.9123 14.4712 13.9977 14.4425 14.0909 14.3908C14.187 14.3366 14.2362 14.2796 14.2778 14.2141C14.3241 14.1487 14.3985 14.0057 14.4624 13.7851L14.8402 12.4941L13.7306 12.5007C13.7306 12.5007 13.389 12.5524 13.2385 12.6095C13.0868 12.6731 12.8699 12.8509 12.8699 12.8509L12.9701 12.497H12.2847L11.3251 15.7605C11.2911 15.8873 11.2683 15.9792 11.263 16.0344C11.2612 16.094 11.3362 16.1529 11.3848 16.1973C11.4422 16.2418 11.5271 16.2345 11.6086 16.2418C11.6942 16.2484 11.816 16.2525 11.9841 16.2525H12.5108L12.6725 15.6927L12.201 15.7384C12.1506 15.7384 12.1141 15.7107 12.099 15.6873ZM12.6169 13.8002H13.7399L13.6685 14.0297C13.6585 14.035 13.6345 14.0183 13.5202 14.0321H12.5477L12.6169 13.8002ZM12.8418 13.0306H13.9743L13.8929 13.307C13.8929 13.307 13.3591 13.3016 13.2736 13.3177C12.8975 13.3845 12.6778 13.5906 12.6778 13.5906L12.8418 13.0306ZM13.6937 14.7981C13.6844 14.8324 13.6697 14.8533 13.6491 14.869C13.6263 14.8841 13.5894 14.8895 13.5344 14.8895H13.3744L13.3838 14.61H12.7182L12.6912 15.9762C12.6902 16.0748 12.6995 16.1318 12.7698 16.1775C12.8401 16.2346 13.0569 16.2418 13.3486 16.2418H13.7657L13.9162 15.7304L13.5531 15.7509L13.4324 15.7581C13.4159 15.7509 13.4002 15.7443 13.3826 15.7263C13.3673 15.7107 13.3415 15.7203 13.3457 15.6217L13.3486 15.2715L13.7294 15.2553C13.935 15.2553 14.0229 15.1867 14.0979 15.1214C14.1694 15.0588 14.1928 14.9868 14.2198 14.8895L14.2837 14.5794H13.7604L13.6937 14.7981Z" fill="#FEFEFE"/>
</g>
<defs>
<clipPath id="clip0_465_3085">
<rect width="24" height="24" rx="12" fill="white"/>
</clipPath>
</defs>
</svg>
