<svg width="24" height="24" viewBox="0 0 24 24" fill="none" xmlns="http://www.w3.org/2000/svg">
<rect width="24" height="24" rx="12" fill="#0E397A"/>
<path d="M17.9939 12.9413C17.9939 14.9885 17.4969 16.5129 16.5028 17.5088C15.5087 18.502 13.9734 19 11.9028 19C9.96758 19 8.49996 18.5029 7.49997 17.5088C6.49999 16.5147 6 15.0153 6 13.0104V6.28495C6 6.12726 6.13529 6 6.30294 6H9.8117C9.9764 6 10.1146 6.12726 10.1146 6.28495V13.1571C10.1146 13.976 10.2764 14.6067 10.6029 15.0494C11.1911 15.7853 12.3028 15.9319 13.0852 15.3758C13.2028 15.2928 13.3087 15.196 13.3999 15.0881C13.7214 14.6713 13.8812 14.0571 13.8793 13.2456V11.9591H17.9939V12.9413Z" fill="#FEFEFE"/>
<path d="M17.672 11.2066H13.875V6.29879C13.875 6.13279 14.0191 6 14.1926 6H14.7632C14.7632 7.67653 16.2073 9.0349 17.9896 9.0349V11.2066H17.672Z" fill="#FEFEFE"/>
<path d="M15.5781 6H17.6781C17.8546 6 17.9957 6.13279 17.9957 6.29879V8.27963C16.6605 8.27963 15.5781 7.25878 15.5781 6.00277V6Z" fill="#EF7F1A"/>
</svg>
