<svg width="32" height="32" viewBox="0 0 32 32" fill="none" xmlns="http://www.w3.org/2000/svg">
<rect width="32" height="32" rx="16" fill="#0E397A"/>
<path d="M21.1995 16.7121C21.1995 18.6917 20.7188 20.1658 19.7576 21.1288C18.7963 22.0892 17.3117 22.5708 15.3095 22.5708C13.4381 22.5708 12.019 22.0901 11.052 21.1288C10.085 20.1676 9.60156 18.7176 9.60156 16.779V10.2755C9.60156 10.1231 9.73239 10 9.8945 10H13.2874C13.4467 10 13.5803 10.1231 13.5803 10.2755V16.9208C13.5803 17.7126 13.7368 18.3226 14.0525 18.7506C14.6213 19.4622 15.6963 19.604 16.4528 19.0663C16.5666 18.986 16.669 18.8924 16.7571 18.788C17.0681 18.385 17.2226 17.7911 17.2207 17.0064V15.7624H21.1995V16.7121Z" fill="#FEFEFE"/>
<path d="M20.8882 15.0347H17.2166V10.2889C17.2166 10.1284 17.3559 10 17.5237 10H18.0754C18.0754 11.6212 19.4719 12.9347 21.1953 12.9347V15.0347H20.8882Z" fill="#FEFEFE"/>
<path d="M18.8653 10H20.896C21.0666 10 21.2031 10.1284 21.2031 10.2889V12.2044C19.9119 12.2044 18.8653 11.2172 18.8653 10.0027V10Z" fill="#EF7F1A"/>
</svg>
