<svg width="32" height="32" viewBox="0 0 32 32" fill="none" xmlns="http://www.w3.org/2000/svg">
<rect width="32" height="32" rx="16" fill="#1434CB"/>
<path d="M18.7636 13.332C17.1542 13.332 15.716 14.0893 15.716 15.4883C15.716 17.0928 18.2667 17.2036 18.2667 18.0096C18.2667 18.349 17.8383 18.6528 17.1065 18.6528C16.0679 18.6528 15.2917 18.2283 15.2917 18.2283L14.9596 19.6401C14.9596 19.6401 15.8538 19.9987 17.041 19.9987C18.8006 19.9987 20.1852 19.2043 20.1852 17.7813C20.1852 16.0859 17.6237 15.9784 17.6237 15.2302C17.6237 14.9644 17.9755 14.6731 18.7052 14.6731C19.5285 14.6731 20.2002 14.9818 20.2002 14.9818L20.5253 13.6183C20.5253 13.6183 19.7944 13.332 18.7636 13.332ZM4.03897 13.4349L4 13.6408C4 13.6408 4.67709 13.7532 5.28691 13.9776C6.07211 14.2349 6.12805 14.3847 6.26029 14.85L7.70131 19.8926H9.63301L12.6089 13.4349H10.6817L8.76946 17.8255L7.98916 14.1039C7.9176 13.6779 7.55513 13.4349 7.11144 13.4349H4.03897ZM13.3839 13.4349L11.872 19.8926H13.7099L15.2164 13.4349H13.3839ZM23.6341 13.4349C23.1909 13.4349 22.9561 13.6503 22.7838 14.0267L20.0913 19.8926H22.0185L22.3914 18.9149H24.7394L24.9661 19.8926H26.6667L25.1831 13.4349H23.6341ZM23.8847 15.1796L24.456 17.6028H22.9255L23.8847 15.1796Z" fill="#F2F2F2"/>
</svg>
