<svg width="24" height="24" viewBox="0 0 24 24" fill="none" xmlns="http://www.w3.org/2000/svg">
<rect width="24" height="24" rx="12" fill="#1434CB"/>
<path d="M14.0727 9.99805C12.8657 9.99805 11.787 10.566 11.787 11.6153C11.787 12.8186 13.7001 12.9017 13.7001 13.5062C13.7001 13.7608 13.3787 13.9886 12.8299 13.9886C12.0509 13.9886 11.4688 13.6703 11.4688 13.6703L11.2197 14.7291C11.2197 14.7291 11.8903 14.998 12.7807 14.998C14.1004 14.998 15.1389 14.4022 15.1389 13.335C15.1389 12.0635 13.2178 11.9828 13.2178 11.4217C13.2178 11.2223 13.4816 11.0038 14.0289 11.0038C14.6464 11.0038 15.1502 11.2354 15.1502 11.2354L15.394 10.2127C15.394 10.2127 14.8458 9.99805 14.0727 9.99805ZM3.02923 10.0752L3 10.2296C3 10.2296 3.50781 10.314 3.96518 10.4822C4.55409 10.6752 4.59604 10.7876 4.69522 11.1365L5.77598 14.9185H7.22476L9.45671 10.0752H8.01125L6.57709 13.3682L5.99187 10.5769C5.9382 10.2575 5.66635 10.0752 5.33358 10.0752H3.02923ZM10.0379 10.0752L8.90403 14.9185H10.2824L11.4123 10.0752H10.0379ZM17.7255 10.0752C17.3932 10.0752 17.2171 10.2368 17.0878 10.519L15.0685 14.9185H16.5139L16.7936 14.1852H18.5545L18.7246 14.9185H20L18.8873 10.0752H17.7255ZM17.9135 11.3837L18.342 13.2011H17.1941L17.9135 11.3837Z" fill="#F2F2F2"/>
</svg>
