<svg width="11" height="12" viewBox="0 0 11 12" fill="none" xmlns="http://www.w3.org/2000/svg">
<path fill-rule="evenodd" clip-rule="evenodd" d="M1.5 0C0.671573 0 0 0.671573 0 1.5V10.5C0 11.3284 0.671573 12 1.5 12H9.5C10.3284 12 11 11.3284 11 10.5V4.62132C11 4.2235 10.842 3.84197 10.5607 3.56066L7.43934 0.43934C7.15804 0.158035 6.7765 0 6.37868 0H1.5ZM7.5 5.75C7.5 5.33579 7.83579 5 8.25 5C8.66421 5 9 5.33579 9 5.75V9.25C9 9.66421 8.66421 10 8.25 10C7.83579 10 7.5 9.66421 7.5 9.25V5.75ZM4.75 7.25C4.75 6.83579 5.08579 6.5 5.5 6.5C5.91421 6.5 6.25 6.83579 6.25 7.25V9.25C6.25 9.66421 5.91421 10 5.5 10C5.08579 10 4.75 9.66421 4.75 9.25V7.25ZM2.75 8C2.33579 8 2 8.33579 2 8.75V9.25C2 9.66421 2.33579 10 2.75 10C3.16421 10 3.5 9.66421 3.5 9.25V8.75C3.5 8.33579 3.16421 8 2.75 8Z" fill="#EDEDED"/>
</svg>
