<svg width="10" height="12" viewBox="0 0 10 12" fill="none" xmlns="http://www.w3.org/2000/svg">
<path fill-rule="evenodd" clip-rule="evenodd" d="M2.25 0C1.00736 0 0 1.00736 0 2.25V11.25C0 11.5302 0.156178 11.787 0.404952 11.9159C0.653727 12.0448 0.953608 12.0243 1.18251 11.8627L2.875 10.668L4.56749 11.8627C4.82678 12.0458 5.17322 12.0458 5.43251 11.8627L7.125 10.668L8.81749 11.8627C9.04639 12.0243 9.34627 12.0448 9.59505 11.9159C9.84382 11.787 10 11.5302 10 11.25V2.25C10 1.00736 8.99264 0 7.75 0H2.25ZM5.28033 3.28033C5.57322 2.98744 5.57322 2.51256 5.28033 2.21967C4.98744 1.92678 4.51256 1.92678 4.21967 2.21967L1.96967 4.46967C1.67678 4.76256 1.67678 5.23744 1.96967 5.53033L4.21967 7.78033C4.51256 8.07322 4.98744 8.07322 5.28033 7.78033C5.57322 7.48744 5.57322 7.01256 5.28033 6.71967L4.31066 5.75H5.625C6.38439 5.75 7 6.36561 7 7.125C7 7.53921 7.33579 7.875 7.75 7.875C8.16421 7.875 8.5 7.53921 8.5 7.125C8.5 5.53718 7.21282 4.25 5.625 4.25H4.31066L5.28033 3.28033Z" fill="#EDEDED"/>
</svg>
