<svg width="12" height="13" viewBox="0 0 12 13" fill="none" xmlns="http://www.w3.org/2000/svg">
<path d="M5.5 0.191101C5.78474 -0.0636963 6.21526 -0.0636963 6.5 0.191101C7.82165 1.37401 9.49346 2.17146 11.3398 2.40887C11.7046 2.45577 11.9819 2.76005 11.9941 3.12762C11.9981 3.24534 12 3.36351 12 3.48212C12 7.53411 9.70462 11.0494 6.34668 12.7995C6.12948 12.9127 5.87052 12.9127 5.65332 12.7995C2.29538 11.0494 0 7.53411 0 3.48212C4.3962e-06 3.36351 0.00194496 3.24534 0.00585938 3.12762C0.0180872 2.76005 0.295382 2.45577 0.660156 2.40887C2.50654 2.17146 4.17835 1.37401 5.5 0.191101ZM8.71387 4.64227C8.38816 4.38636 7.91607 4.44352 7.66016 4.76923L5.39355 7.65302L4.23828 6.66278C3.92387 6.39329 3.45027 6.42957 3.18066 6.74384C2.91117 7.05825 2.94746 7.53185 3.26172 7.80145L5.01172 9.30145C5.16691 9.43447 5.36982 9.49818 5.57324 9.47821C5.77665 9.45819 5.96352 9.35666 6.08984 9.19598L8.83984 5.69598C9.09571 5.37034 9.03942 4.89821 8.71387 4.64227Z" fill="#EDEDED"/>
</svg>
