<svg width="17" height="21" viewBox="0 0 17 21" fill="none" xmlns="http://www.w3.org/2000/svg">
<path d="M15.75 12.75V10.125C15.75 8.26104 14.239 6.75 12.375 6.75H10.875C10.2537 6.75 9.75 6.24632 9.75 5.625V4.125C9.75 2.26104 8.23896 0.75 6.375 0.75H4.5M5.25 15V15.75M8.25 12.75V15.75M11.25 10.5V15.75M6.75 0.75H1.875C1.25368 0.75 0.75 1.25368 0.75 1.875V19.125C0.75 19.7463 1.25368 20.25 1.875 20.25H14.625C15.2463 20.25 15.75 19.7463 15.75 19.125V9.75C15.75 4.77944 11.7206 0.75 6.75 0.75Z" stroke="white" stroke-width="1.5" stroke-linecap="round" stroke-linejoin="round"/>
</svg>
