<svg width="181" height="44" viewBox="0 0 181 44" fill="none" xmlns="http://www.w3.org/2000/svg">
<g clip-path="url(#clip0_815_8178)">
<path fill-rule="evenodd" clip-rule="evenodd" d="M20.2949 18.9638H9.22608C7.71081 18.9638 6.65301 18.8178 6.06119 18.5217C5.46933 18.2256 5.17132 17.6292 5.17132 16.7325C5.17132 16.2321 5.25105 15.6398 5.40636 14.96L7.71081 4.06635C7.88709 3.21555 8.10957 2.52322 8.36979 2.0019C8.63006 1.4764 8.97842 1.07185 9.40656 0.788245C9.83471 0.504645 10.3636 0.312796 10.989 0.212702C11.6145 0.116777 12.3784 0.0625593 13.2808 0.0625593H24.3538L23.6277 3.47829H14.0742C13.5663 3.47829 13.1675 3.49915 12.8695 3.54502C12.5757 3.58673 12.3364 3.67848 12.1601 3.82028C11.9796 3.96209 11.8453 4.16228 11.7488 4.42919C11.6438 4.68777 11.5515 5.02976 11.4676 5.44684L9.75498 13.5837C9.64166 14.13 9.59126 14.4929 9.59126 14.6639C9.59126 15.0393 9.71298 15.2811 9.96484 15.3854C10.2209 15.498 10.7288 15.5481 11.4969 15.5481H21.021L20.2949 18.9638ZM36.9505 14.6639C37.0471 14.4011 37.1562 14.0424 37.2611 13.5837L39.0073 5.44684C39.0954 5.00891 39.1374 4.64607 39.1374 4.36247C39.1374 3.99128 39.0073 3.74938 38.7596 3.64512C38.5036 3.53251 37.9957 3.47829 37.2275 3.47829H33.2399C32.7782 3.47829 32.4004 3.49498 32.0982 3.52417C31.8044 3.56171 31.5609 3.64095 31.3762 3.77441C31.1874 3.9037 31.0404 4.10389 30.9313 4.36247C30.818 4.62521 30.7214 4.98389 30.6333 5.44684L28.8871 13.5837C28.778 14.13 28.7234 14.4929 28.7234 14.6639C28.7234 15.0393 28.8536 15.277 29.1012 15.3854C29.3531 15.498 29.8652 15.5481 30.6333 15.5481H34.6545C35.1162 15.5481 35.4898 15.5355 35.7878 15.5022C36.09 15.4646 36.3251 15.3896 36.514 15.2561C36.7029 15.1226 36.8414 14.9266 36.9421 14.6639H36.9505ZM40.9843 14.96C40.808 15.815 40.5981 16.499 40.3421 17.0119C40.0902 17.5207 39.7628 17.9253 39.3557 18.2214C38.9527 18.5176 38.4323 18.7136 37.8068 18.8136C37.1772 18.9096 36.3922 18.9596 35.4478 18.9596H28.396C27.5817 18.9596 26.9143 18.9221 26.3854 18.8428C25.865 18.7636 25.441 18.6468 25.1346 18.4842C24.8282 18.3174 24.6141 18.0921 24.4924 17.8127C24.3748 17.5291 24.3077 17.1662 24.3077 16.7283C24.3077 16.2279 24.3832 15.6357 24.5385 14.9558L26.8766 4.06635C27.0738 3.21138 27.3047 2.51905 27.5524 1.99772C27.8084 1.47223 28.14 1.06768 28.5429 0.784075C28.9543 0.500474 29.4706 0.308626 30.096 0.208531C30.7214 0.112607 31.4979 0.0625593 32.4172 0.0625593H39.469C40.9843 0.0625593 42.042 0.216872 42.6465 0.525498C43.2509 0.829953 43.5574 1.42218 43.5574 2.29384C43.5574 2.79848 43.4776 3.38654 43.3265 4.07052L40.9843 14.96ZM66.4209 0H62.0348L54.3995 13.3835L52.288 0H47.906L43.889 18.9638H47.6079L50.1474 7.11925L51.4948 18.9638H54.7897L61.2457 7.08589L58.6768 18.9638H62.3999L66.4209 0ZM84.2732 4.09972C84.4286 3.39905 84.5039 2.79848 84.5039 2.29384C84.5039 1.42218 84.206 0.838292 83.6015 0.538007C82.997 0.246066 81.9433 0.100095 80.424 0.100095H69.7122L68.9856 3.47829H78.212C78.9801 3.47829 79.4923 3.53668 79.7441 3.65763C79.9958 3.77858 80.1174 4.02464 80.1174 4.39583C80.1174 4.50426 80.1051 4.64607 80.0712 4.81706C80.0379 4.99223 79.9958 5.20075 79.9538 5.44265L79.66 6.81898C79.5467 7.2777 79.4503 7.6364 79.3452 7.90332C79.2488 8.1619 79.1057 8.3621 78.917 8.49139C78.7283 8.62067 78.4889 8.70407 78.191 8.73743C77.8972 8.77079 77.5152 8.78747 77.0532 8.78747H71.9196L72.642 5.44265H68.5913L65.6866 18.9596H69.7414L71.1894 12.1991H77.8469C78.7909 12.1991 79.5759 12.1532 80.2015 12.0531C80.827 11.9572 81.3387 11.757 81.7505 11.465C82.1535 11.1689 82.4806 10.7643 82.7242 10.2514C82.9636 9.73423 83.1857 9.05024 83.379 8.19945L84.2686 4.09972H84.2732ZM96.6976 15.5481H89.5114L92.8063 0H88.7854L84.7388 18.9638H95.9715L96.6976 15.5481ZM107.502 0.0959241H103.451L99.43 18.9596H103.485L107.502 0.0959241ZM114.549 12.7621H119.062L118.701 4.36247L114.545 12.7621H114.549ZM119.36 18.9638L119.23 16.1445H112.871L111.485 18.9638H107.338L116.531 0.0959241H122.394L123.515 18.9596H119.364L119.36 18.9638ZM144.465 0H140.742L137.909 13.5503L133.392 0H129.308L125.291 18.9638H129.014L131.55 6.3977L135.734 18.9638H140.444L144.465 0ZM160.512 15.5481H150.988C150.22 15.5481 149.712 15.498 149.46 15.3854C149.204 15.277 149.078 15.0351 149.078 14.6639C149.078 14.4887 149.129 14.13 149.246 13.5837L150.955 5.44684C151.043 5.02976 151.135 4.69195 151.235 4.42919C151.337 4.16228 151.471 3.96209 151.647 3.82028C151.823 3.67848 152.063 3.58673 152.356 3.54502C152.654 3.49915 153.057 3.47829 153.565 3.47829H163.114L163.841 0.0625593H152.768C151.869 0.0625593 151.105 0.112607 150.48 0.212702C149.855 0.308626 149.326 0.504645 148.897 0.788245C148.465 1.07185 148.125 1.4764 147.856 2.0019C147.597 2.52322 147.374 3.21555 147.198 4.06635L144.893 14.96C144.742 15.6357 144.662 16.2279 144.662 16.7325C144.662 17.6292 144.96 18.2256 145.552 18.5217C146.14 18.8178 147.198 18.9638 148.713 18.9638H159.781L160.512 15.5481ZM180.278 3.47829H165.746L166.472 0.100095H181L180.282 3.47829H180.278ZM176.983 18.9638H162.455L165.318 5.44684H169.369L168.874 7.77818H174.015L173.289 11.1898H168.147L167.224 15.5522H177.701L176.974 18.9679L176.983 18.9638ZM15.8497 40.5843H6.32562C5.55747 40.5843 5.04538 40.53 4.79773 40.4174C4.54169 40.3132 4.41576 40.0713 4.41576 39.6959C4.41576 39.5207 4.47033 39.1621 4.57946 38.6116L6.29203 30.4747C6.38017 30.0576 6.47252 29.7198 6.56907 29.4571C6.66982 29.1985 6.80411 28.9941 6.98045 28.8523C7.15673 28.7105 7.39177 28.6146 7.68978 28.5729C7.98364 28.5312 8.38661 28.5062 8.89448 28.5062H18.4438L19.17 25.0946H8.10116C7.19867 25.0946 6.43473 25.1405 5.80513 25.2447C5.17973 25.3407 4.65082 25.5325 4.22687 25.8203C3.79873 26.0997 3.45454 26.5084 3.19009 27.034C2.92565 27.5595 2.70738 28.2476 2.53109 29.1026L0.230862 39.9962C0.0797523 40.6719 0 41.2599 0 41.7687C0 42.6612 0.298022 43.2618 0.889869 43.5538C1.48171 43.8498 2.53948 43.9958 4.05058 43.9958H15.1193L15.8497 40.5843ZM31.7792 39.7001C31.8757 39.4374 31.9807 39.0787 32.0898 38.6157L33.8318 30.4789C33.9241 30.0451 33.9661 29.6823 33.9661 29.3945C33.9661 29.0275 33.8402 28.7856 33.5883 28.673C33.3323 28.5645 32.8244 28.5103 32.0562 28.5103H28.0686C27.6111 28.5103 27.2291 28.527 26.9353 28.5604C26.6415 28.5896 26.398 28.673 26.2091 28.8064C26.0286 28.9399 25.8733 29.1359 25.7642 29.3945C25.6592 29.6614 25.5585 30.0201 25.4704 30.4789L23.7242 38.6157C23.6151 39.1662 23.5605 39.5249 23.5605 39.7001C23.5605 40.0713 23.6864 40.3132 23.9383 40.4216C24.1943 40.53 24.7022 40.5884 25.4704 40.5884H29.4916C29.9491 40.5884 30.3311 40.5717 30.6249 40.5384C30.9187 40.505 31.1664 40.4216 31.3468 40.2923C31.5357 40.163 31.6785 39.9628 31.7792 39.7043V39.7001ZM35.813 39.9962C35.6325 40.847 35.4184 41.531 35.1666 42.044C34.9147 42.557 34.5873 42.9615 34.176 43.2576C33.773 43.5496 33.2567 43.7498 32.6313 43.8457C32.0059 43.9458 31.2168 43.9958 30.2765 43.9958H23.2247C22.4146 43.9958 21.743 43.9541 21.2183 43.8749C20.6894 43.7998 20.2697 43.683 19.9633 43.5162C19.6569 43.3536 19.4428 43.1283 19.3211 42.8447C19.2035 42.5611 19.1364 42.1983 19.1364 41.7604C19.1364 41.2557 19.2161 40.6677 19.3672 39.9921L21.7094 29.0984C21.9067 28.2434 22.1292 27.5553 22.381 27.0298C22.6371 26.5043 22.9645 26.0997 23.3716 25.8161C23.7746 25.5325 24.2909 25.3365 24.9163 25.2405C25.5417 25.1447 26.3183 25.0946 27.2417 25.0946H34.2935C35.8088 25.0946 36.8666 25.2489 37.4752 25.5534C38.0754 25.862 38.3776 26.45 38.3776 27.3259C38.3776 27.8305 38.3021 28.4228 38.1426 29.0984L35.8088 39.9921L35.813 39.9962ZM58.022 25.0321H54.2944L51.4614 38.5865L46.9489 25.0321H42.8606L38.8394 44H42.5667L45.102 31.434L49.2828 44H53.9965L58.0179 25.0321H58.022ZM75.4119 25.0321H61.3088L60.5868 28.4436H65.3969L62.0681 44H66.1229L69.4517 28.4436H74.6899L75.4165 25.0321H75.4119ZM90.8969 37.865C90.9594 37.5814 90.9974 37.3145 90.9974 37.0726C90.9974 36.2218 90.6282 35.7088 89.9062 35.5336C90.8969 35.5336 91.5599 34.7662 91.8829 33.2357L92.773 29.1317C92.9284 28.4311 93.0079 27.8305 93.0079 27.3259C93.0079 26.913 92.9448 26.5626 92.8233 26.2791C92.7017 25.9955 92.4833 25.766 92.1644 25.6076C91.8496 25.4408 91.4214 25.324 90.8969 25.2447C90.3718 25.1697 89.7088 25.1279 88.9197 25.1279H78.2161L77.4901 28.5103H86.6826C87.4461 28.5103 87.9624 28.5604 88.2311 28.673C88.4916 28.7856 88.6259 29.0317 88.6259 29.4279C88.6259 29.5405 88.6049 29.6781 88.5757 29.8533C88.5377 30.0284 88.5039 30.237 88.4577 30.4747L88.1639 31.851C88.0593 32.314 87.9501 32.6726 87.8537 32.9354C87.7527 33.1981 87.606 33.3983 87.4209 33.5276C87.2364 33.6569 86.9928 33.7403 86.699 33.7736C86.4052 33.807 86.0232 33.8237 85.5658 33.8237H80.4281L81.1459 30.4747H77.0993L74.1992 43.9917H78.254L79.6979 37.2353H84.8398C85.6079 37.2353 86.1201 37.2936 86.3719 37.4188C86.6236 37.5355 86.7539 37.7816 86.7539 38.1528C86.7539 38.2654 86.7328 38.4072 86.7036 38.5824C86.6698 38.7576 86.6318 38.966 86.5898 39.2038L85.5699 43.9917H89.5827L90.9051 37.8609L90.8969 37.865ZM106.528 39.7001C106.629 39.4374 106.729 39.0787 106.839 38.6157L108.589 30.4789C108.673 30.0451 108.715 29.6823 108.715 29.3945C108.715 29.0275 108.589 28.7856 108.337 28.673C108.085 28.5645 107.578 28.5103 106.809 28.5103H102.826C102.36 28.5103 101.987 28.527 101.684 28.5604C101.39 28.5896 101.151 28.673 100.962 28.8064C100.778 28.9399 100.626 29.1359 100.518 29.3945C100.408 29.6614 100.311 30.0201 100.219 30.4789L98.4773 38.6157C98.3681 39.1662 98.3138 39.5249 98.3138 39.7001C98.3138 40.0713 98.4353 40.3132 98.6912 40.4216C98.9434 40.53 99.451 40.5884 100.219 40.5884H104.241C104.702 40.5884 105.08 40.5717 105.374 40.5384C105.672 40.505 105.915 40.4216 106.1 40.2923C106.289 40.163 106.427 39.9628 106.528 39.7043V39.7001ZM110.566 39.9962C110.39 40.847 110.176 41.531 109.924 42.044C109.668 42.557 109.34 42.9615 108.933 43.2576C108.526 43.5496 108.01 43.7498 107.384 43.8457C106.759 43.9458 105.974 43.9958 105.03 43.9958H97.982C97.1678 43.9958 96.5002 43.9541 95.9715 43.8749C95.447 43.7998 95.0271 43.683 94.7163 43.5162C94.4097 43.3536 94.2 43.1283 94.0744 42.8447C93.9564 42.5611 93.8893 42.1983 93.8893 41.7604C93.8893 41.2557 93.9693 40.6677 94.1246 39.9921L96.4627 29.0984C96.6596 28.2434 96.8822 27.5553 97.1385 27.0298C97.3903 26.5043 97.7215 26.0997 98.1246 25.8161C98.5317 25.5325 99.0439 25.3365 99.6736 25.2405C100.299 25.1447 101.075 25.0946 101.999 25.0946H109.047C110.562 25.0946 111.624 25.2489 112.228 25.5534C112.829 25.862 113.131 26.45 113.131 27.3259C113.131 27.8305 113.055 28.4228 112.904 29.0984L110.562 39.9921L110.566 39.9962ZM125.488 40.5843H118.306L121.601 25.0321H117.584L113.53 43.9958H124.762L125.488 40.5843Z" fill="#6D6D6D"/>
</g>
<defs>
<clipPath id="clip0_815_8178">
<rect width="181" height="44" fill="white"/>
</clipPath>
</defs>
</svg>
