<svg width="149" height="56" viewBox="0 0 149 56" fill="none" xmlns="http://www.w3.org/2000/svg">
<path d="M101.438 31.8036L102.923 32.2431C102.847 32.6147 102.687 32.9664 102.453 33.2682C102.247 33.537 101.975 33.7476 101.66 33.877C101.337 34.023 100.941 34.096 100.446 34.096C99.8532 34.096 99.3817 34.023 98.986 33.8521C98.6139 33.6829 98.2923 33.3893 98.0195 32.9498C97.7467 32.5367 97.5986 31.9744 97.5986 31.3159C97.5986 30.4384 97.8461 29.755 98.3176 29.2673C98.7873 28.7796 99.481 28.559 100.347 28.559C101.04 28.559 101.561 28.7066 101.956 28.9754C102.352 29.2441 102.648 29.6571 102.822 30.2443L101.335 30.5611C101.308 30.4268 101.249 30.3024 101.163 30.1962C101.072 30.0735 100.953 29.9739 100.815 29.9026C100.677 29.8363 100.523 29.8031 100.37 29.8047C99.9996 29.8047 99.7016 29.9507 99.5046 30.2675C99.3548 30.4881 99.2807 30.8531 99.2807 31.3175C99.2807 31.9031 99.3817 32.3178 99.5534 32.5367C99.7403 32.764 100.025 32.89 100.323 32.8801C100.645 32.8801 100.892 32.7806 101.04 32.6114C101.244 32.3841 101.382 32.1054 101.436 31.8052L101.438 31.8036ZM103.515 31.3159C103.515 30.4384 103.763 29.7566 104.26 29.2673C104.755 28.7796 105.447 28.5358 106.339 28.5358C107.231 28.5358 107.947 28.7796 108.442 29.2441C108.937 29.7318 109.186 30.3903 109.186 31.2678C109.186 31.9014 109.085 32.414 108.863 32.8038C108.641 33.1936 108.344 33.5121 107.922 33.7294C107.526 33.95 107.006 34.0727 106.411 34.0727C105.817 34.0727 105.299 33.9732 104.876 33.7792C104.462 33.5718 104.118 33.2483 103.886 32.8519C103.613 32.414 103.514 31.9495 103.514 31.3159H103.515ZM105.199 31.3159C105.199 31.8533 105.3 32.2431 105.497 32.487C105.696 32.7308 105.967 32.8519 106.339 32.8519C106.657 32.8685 106.965 32.7424 107.179 32.5102C107.376 32.2664 107.477 31.8517 107.477 31.2661C107.477 30.7536 107.376 30.3886 107.154 30.168C106.957 29.9242 106.659 29.8263 106.314 29.8263C105.997 29.813 105.694 29.9491 105.495 30.1912C105.299 30.387 105.197 30.7768 105.197 31.3126L105.199 31.3159ZM110.048 28.6337H112.254L113.094 31.9014L113.936 28.6337H116.14V33.9998H114.753V29.9026L113.689 33.9998H112.451L111.385 29.9026V33.9998H109.998V28.6337H110.048ZM117.231 28.6337H120.028C120.646 28.6337 121.094 28.7796 121.389 29.0716C121.687 29.3652 121.835 29.755 121.835 30.2908C121.835 30.8265 121.661 31.2678 121.34 31.5597C121.017 31.8782 120.498 32.0242 119.828 32.0242H118.914V34.023H117.23V28.6337H117.231ZM118.914 30.9261H119.334C119.658 30.9261 119.88 30.8763 120.028 30.7552C120.151 30.6341 120.225 30.5114 120.225 30.3405C120.232 30.178 120.17 30.0187 120.053 29.9026C119.931 29.7815 119.73 29.7318 119.41 29.7318H118.939V30.9277H118.914V30.9261ZM122.727 28.6337H124.411V32.6827H127.036V33.9998H122.727V28.6337ZM127.88 28.6337H129.563V33.9998H127.88V28.6337ZM134.118 33.0974H132.212L131.939 33.9749H130.229L132.283 28.6088H134.115L136.169 33.9749H134.411L134.113 33.0974H134.118ZM133.771 31.9512L133.177 30.0237L132.584 31.9512H133.773H133.771ZM136.693 28.6337H138.252L140.308 31.6078V28.6337H141.89V33.9998H140.306L138.277 31.0488V33.9998H136.693V28.6337ZM142.633 28.6337H147.757V29.9507H146.048V33.9998H144.364V29.9491H142.657V28.632H142.631L142.633 28.6337ZM81.1834 36.8047L86.0596 35.2919L84.4752 31.8284C83.3117 33.2682 82.1482 35.1211 81.1834 36.8031V36.8047ZM79.5249 20.9768L69.9678 0L0 3.90308L19.3854 56L56.6979 44.4152C54.3204 41.0479 53.4549 37.0502 56.2012 35.0979C59.2724 32.9033 63.9028 35.4396 66.8477 39.0242C69.695 34.3415 77.6913 23.4401 79.5249 20.9751V20.9768Z" fill="#6D6D6D"/>
<path d="M67.7896 15.1569C70.7126 15.1569 73.0901 12.9623 73.0901 10.2303C73.0901 7.49835 70.7126 5.3038 67.7896 5.3038C64.8666 5.3038 62.4907 7.49835 62.4907 10.2303C62.4907 12.9623 64.8682 15.1569 67.7913 15.1569H67.7896ZM63.4572 17.2801H72.122V39.5972H63.4555V17.2801H63.4572ZM59.1754 23.7924C59.2511 23.8157 59.3 23.7924 59.3 23.7178V18.0597C59.3 17.9851 59.2495 17.9121 59.1771 17.864C59.1771 17.864 58.0388 17.1325 54.5702 16.9367C54.3985 16.8389 51.3525 16.8156 50.5359 16.9367C37.9076 17.9386 37.4378 26.9375 37.4378 27.3273V29.5235C37.4378 29.7922 37.4378 38.9851 50.5359 39.7912C51.824 39.8908 54.3227 39.7912 54.5702 39.7912C57.5909 39.7912 59.6687 38.8889 59.6687 38.8889C59.7428 38.864 59.7933 38.7943 59.7933 38.718V33.4265C59.7933 33.3519 59.7428 33.327 59.6923 33.3768C59.6923 33.3768 58.7528 34.11 54.6426 34.523C53.4792 34.6441 52.9084 34.5976 52.4891 34.523C46.6464 33.5476 46.3736 29.3526 46.3736 29.3526C46.3736 29.2796 46.3484 29.1569 46.3484 29.1088V27.4998C46.3484 27.4251 46.3483 27.304 46.3736 27.2543C46.3736 27.2543 46.7693 22.7408 52.4874 22.2547H54.6426C57.1414 22.5716 59.1737 23.7908 59.1737 23.7908L59.1754 23.7924ZM13.3715 39.5225C13.3715 39.5955 13.422 39.6419 13.4944 39.6419H21.9369C22.0127 39.6419 22.0598 39.5922 22.0598 39.5225V33.0334C22.0565 32.9704 22.1053 32.9156 22.1693 32.9123C22.1743 32.9123 22.1777 32.9123 22.1827 32.9123C22.1827 32.9123 35.6749 33.8645 35.6749 24.9619C35.6749 17.9121 27.2088 17.1557 24.4356 17.2784H13.4911C13.4271 17.2751 13.3715 17.3232 13.3682 17.3863C13.3682 17.3912 13.3682 17.3946 13.3682 17.3995V39.5225H13.3715ZM21.915 27.9609V22.132H23.9928C23.9928 22.132 26.9883 22.2531 27.2358 24.2784C27.2863 24.4261 27.2863 25.4247 27.2358 25.4744C26.8401 27.8398 24.2403 27.9609 24.2403 27.9609H21.9133H21.915Z" fill="#FEFEFE"/>
<path d="M68.041 50.3668C68.7331 50.3668 69.2786 50.3668 70.1693 49.9754C73.2389 48.3912 83.611 23.4401 94.5555 15.7566C94.633 15.7052 94.7003 15.6389 94.7542 15.5626C94.8283 15.463 94.8283 15.3668 94.8283 15.3668C94.8283 15.3668 94.8283 14.8559 93.2203 14.8559C83.4897 14.5856 73.3635 34.7081 68.041 42.6585C67.9653 42.7581 67.6201 42.6585 67.6201 42.6585C67.6201 42.6585 64.0539 38.5133 60.9591 36.9275C60.885 36.9043 60.5381 36.7832 60.166 36.8081C59.9185 36.8081 58.4822 37.1 57.8155 37.7834C57.0224 38.6128 57.046 39.0756 57.046 40.0758C57.046 40.1505 57.0965 40.4905 57.1958 40.6614C57.9636 41.9785 61.4036 46.6595 64.2509 49.2455C64.6718 49.5623 65.3386 50.3668 68.0394 50.3668H68.041ZM97.428 8.21755H105.524C107.133 8.21755 108.421 8.43816 109.386 8.8512C110.334 9.25594 111.168 9.88295 111.813 10.6792C112.457 11.487 112.927 12.4126 113.2 13.4609C113.498 14.5109 113.645 15.6322 113.645 16.8282C113.645 18.6811 113.422 20.1209 113.001 21.1443C112.607 22.1247 111.999 23.0088 111.22 23.7303C110.452 24.4138 109.635 24.8766 108.768 25.1204C107.713 25.414 106.621 25.5716 105.525 25.5848H97.4297V8.21755H97.428ZM102.875 12.1455V21.632H104.212C105.349 21.632 106.169 21.5126 106.637 21.2687C107.108 21.0249 107.504 20.5853 107.777 19.9766C108.049 19.3678 108.196 18.3427 108.196 16.9526C108.196 15.0981 107.899 13.854 107.282 13.1706C106.664 12.4889 105.672 12.1455 104.236 12.1455H102.875ZM115.152 19.8538L120.351 19.5353C120.474 20.3647 120.698 21 121.045 21.4379C121.614 22.1462 122.405 22.4879 123.446 22.4879C124.215 22.4879 124.833 22.3187 125.252 21.9521C125.673 21.5856 125.896 21.1709 125.896 20.7064C125.896 20.2685 125.699 19.8538 125.303 19.4872C124.907 19.1223 123.966 18.8038 122.505 18.487C120.103 17.9495 118.42 17.2429 117.381 16.3638C116.34 15.4863 115.845 14.3649 115.845 12.9981C115.845 12.0957 116.118 11.2647 116.638 10.4619C117.157 9.6557 117.95 9.04528 119.014 8.58414C120.08 8.11968 121.515 7.90073 123.348 7.90073C125.599 7.90073 127.334 8.31542 128.497 9.1448C129.684 9.97419 130.38 11.2912 130.602 13.096L125.453 13.3896C125.303 12.6083 125.032 12.0476 124.586 11.6811C124.141 11.3161 123.545 11.1436 122.781 11.1436C122.136 11.1436 121.666 11.2647 121.343 11.5334C121.04 11.769 120.866 12.1306 120.875 12.5104C120.881 12.809 121.026 13.0877 121.269 13.2668C121.516 13.4858 122.134 13.7048 123.101 13.9005C125.478 14.4114 127.185 14.9256 128.224 15.4365C129.265 15.9474 130.006 16.6059 130.477 17.364C130.947 18.1204 131.169 18.9979 131.169 19.95C131.174 21.0431 130.846 22.113 130.23 23.022C129.612 23.9742 128.718 24.6808 127.605 25.1685C126.492 25.6562 125.055 25.9 123.346 25.9C120.351 25.9 118.27 25.3393 117.106 24.1931C115.97 23.0469 115.325 21.6071 115.15 19.8521L115.152 19.8538ZM132.557 19.8538L137.756 19.5353C137.877 20.3647 138.103 21 138.448 21.4379C139.017 22.1462 139.809 22.4879 140.849 22.4879C141.619 22.4879 142.237 22.3187 142.656 21.9521C143.077 21.5856 143.299 21.1709 143.299 20.7064C143.299 20.2685 143.102 19.8538 142.707 19.4872C142.311 19.1223 141.37 18.8038 139.91 18.487C137.507 17.9495 135.823 17.2429 134.784 16.3638C133.769 15.4863 133.249 14.3649 133.249 12.9981C133.249 12.0957 133.522 11.2647 134.042 10.4619C134.562 9.6557 135.353 9.04528 136.419 8.58414C137.483 8.11968 138.918 7.90073 140.752 7.90073C143.005 7.90073 144.737 8.31542 145.901 9.1448C147.089 9.97419 147.783 11.2912 148.005 13.096L142.856 13.3896C142.708 12.6083 142.435 12.0476 141.989 11.6811C141.545 11.3161 140.95 11.1436 140.184 11.1436C139.541 11.1436 139.07 11.2647 138.746 11.5334C138.443 11.769 138.27 12.1306 138.278 12.5104C138.278 12.7792 138.399 13.0462 138.672 13.2668C138.92 13.4858 139.539 13.7048 140.504 13.9005C142.882 14.4114 144.589 14.9256 145.628 15.4365C146.668 15.9474 147.411 16.6059 147.881 17.364C148.351 18.1204 148.575 18.9979 148.575 19.95C148.578 21.0431 148.251 22.113 147.633 23.022C147.015 23.9742 146.121 24.6808 145.008 25.1685C143.895 25.6562 142.459 25.9 140.75 25.9C137.755 25.9 135.673 25.3393 134.51 24.1931C133.346 23.0469 132.705 21.6071 132.553 19.8521L132.557 19.8538Z" fill="#6D6D6D"/>
</svg>
