<svg width="126" height="33" viewBox="0 0 126 33" fill="none" xmlns="http://www.w3.org/2000/svg">
<path d="M19.8235 15.1258C19.7903 11.5325 22.8411 9.7843 22.9806 9.70292C21.2528 7.24681 18.5748 6.91122 17.6337 6.88447C15.3845 6.65368 13.2027 8.1967 12.057 8.1967C10.8883 8.1967 9.12394 6.90676 7.22233 6.94467C4.77528 6.98146 2.48604 8.36281 1.23049 10.5079C-1.36063 14.8816 0.57185 21.309 3.05435 24.8443C4.29617 26.5757 5.74724 28.5089 7.64656 28.4409C9.50472 28.3662 10.1988 27.2859 12.4412 27.2859C14.663 27.2859 15.3147 28.4409 17.2518 28.3974C19.246 28.3662 20.5016 26.6582 21.6999 24.9112C23.135 22.9267 23.7113 20.9723 23.7342 20.8719C23.6873 20.8563 19.8612 19.4326 19.8235 15.1258Z" fill="white"/>
<path d="M16.1643 4.5588C17.1637 3.34022 17.8476 1.68237 17.6577 0C16.2112 0.062434 14.4022 0.975532 13.3605 2.16735C12.4389 3.21758 11.6156 4.93898 11.8283 6.5578C13.4532 6.67598 15.1215 5.75842 16.1643 4.5588Z" fill="white"/>
<path d="M46.7142 28.192H44.1173L42.6949 23.8339H37.7504L36.3954 28.192H33.8672L38.7659 13.355H41.7915L46.7142 28.192ZM42.2661 22.0054L40.9796 18.1312C40.8436 17.7354 40.5886 16.8033 40.2124 15.3361H40.1666C40.0168 15.9672 39.7755 16.8992 39.4439 18.1312L38.1804 22.0054H42.2661Z" fill="white"/>
<path d="M59.311 22.7113C59.311 24.5308 58.8068 25.969 57.7982 27.0248C56.8949 27.9646 55.7731 28.434 54.4341 28.434C52.9887 28.434 51.9505 27.9278 51.3181 26.9155H51.2724V32.5513H48.8345V21.0155C48.8345 19.8716 48.8036 18.6976 48.7441 17.4936H50.8882L51.0242 19.1893H51.07C51.883 17.9116 53.1168 17.2739 54.7726 17.2739C56.067 17.2739 57.1476 17.7723 58.0121 18.7701C58.8788 19.7691 59.311 21.0824 59.311 22.7113ZM56.8274 22.7982C56.8274 21.7569 56.5873 20.8984 56.1047 20.2228C55.5776 19.5182 54.8698 19.1659 53.9824 19.1659C53.381 19.1659 52.8344 19.3621 52.3461 19.749C51.8567 20.1392 51.5365 20.6487 51.3867 21.2797C51.3113 21.5741 51.2735 21.8149 51.2735 22.0044V23.7882C51.2735 24.5664 51.5182 25.2231 52.0076 25.7594C52.497 26.2956 53.1328 26.5632 53.915 26.5632C54.8332 26.5632 55.5478 26.2176 56.059 25.5286C56.5713 24.8385 56.8274 23.9287 56.8274 22.7982Z" fill="white"/>
<path d="M71.9329 22.7113C71.9329 24.5308 71.4287 25.969 70.419 27.0248C69.5168 27.9646 68.395 28.434 67.056 28.434C65.6106 28.434 64.5724 27.9278 63.9412 26.9155H63.8954V32.5513H61.4575V21.0155C61.4575 19.8716 61.4266 18.6976 61.3672 17.4936H63.5112L63.6473 19.1893H63.693C64.5049 17.9116 65.7387 17.2739 67.3956 17.2739C68.6889 17.2739 69.7695 17.7723 70.6362 18.7701C71.4996 19.7691 71.9329 21.0824 71.9329 22.7113ZM69.4493 22.7982C69.4493 21.7569 69.208 20.8984 68.7255 20.2228C68.1983 19.5182 67.4928 19.1659 66.6043 19.1659C66.0017 19.1659 65.4563 19.3621 64.9669 19.749C64.4775 20.1392 64.1584 20.6487 64.0086 21.2797C63.9343 21.5741 63.8954 21.8149 63.8954 22.0044V23.7882C63.8954 24.5664 64.1401 25.2231 64.6272 25.7594C65.1167 26.2945 65.7524 26.5632 66.5369 26.5632C67.4551 26.5632 68.1698 26.2176 68.6809 25.5286C69.1932 24.8385 69.4493 23.9287 69.4493 22.7982Z" fill="white"/>
<path d="M86.0421 24.0313C86.0421 25.2934 85.5928 26.3202 84.6905 27.1129C83.6992 27.9792 82.319 28.4117 80.5454 28.4117C78.908 28.4117 77.5952 28.104 76.6016 27.4875L77.1664 25.5063C78.2367 26.1374 79.4111 26.454 80.6907 26.454C81.6089 26.454 82.3235 26.2511 82.837 25.8475C83.3481 25.4439 83.6031 24.9021 83.6031 24.2264C83.6031 23.6244 83.3927 23.1171 82.9707 22.7057C82.5511 22.2943 81.8501 21.9119 80.8713 21.5585C78.207 20.5896 76.876 19.1704 76.876 17.3041C76.876 16.0844 77.3425 15.0843 78.2768 14.3061C79.2076 13.5268 80.4494 13.1377 82.0022 13.1377C83.387 13.1377 84.5373 13.3729 85.4555 13.8423L84.8461 15.78C83.9884 15.3251 83.0188 15.0977 81.9336 15.0977C81.076 15.0977 80.4059 15.3039 79.9257 15.7142C79.5197 16.081 79.3162 16.5281 79.3162 17.0577C79.3162 17.6441 79.5483 18.1291 80.0149 18.5104C80.4208 18.8627 81.1583 19.244 82.2286 19.6554C83.5379 20.1693 84.4996 20.7703 85.1182 21.4593C85.7345 22.146 86.0421 23.0056 86.0421 24.0313Z" fill="white"/>
<path d="M94.1044 19.2772H91.4172V24.4715C91.4172 25.7926 91.8906 26.4526 92.8397 26.4526C93.2754 26.4526 93.6367 26.4158 93.9226 26.3423L93.99 28.1473C93.5098 28.3223 92.8774 28.4104 92.0941 28.4104C91.1313 28.4104 90.3789 28.1239 89.8358 27.5519C89.2949 26.9789 89.0227 26.0178 89.0227 24.6677V19.2749H87.4219V17.4911H89.0227V15.5322L91.4172 14.8276V17.4911H94.1044V19.2772Z" fill="white"/>
<path d="M106.228 22.7546C106.228 24.3991 105.745 25.7492 104.783 26.805C103.773 27.892 102.433 28.4339 100.762 28.4339C99.1522 28.4339 97.8703 27.9132 96.9144 26.8719C95.9584 25.8306 95.4805 24.5161 95.4805 22.9319C95.4805 21.274 95.9722 19.9161 96.959 18.8603C97.9435 17.8034 99.2722 17.2749 100.943 17.2749C102.553 17.2749 103.848 17.7956 104.826 18.838C105.761 19.8492 106.228 21.1547 106.228 22.7546ZM103.699 22.8315C103.699 21.8448 103.483 20.9986 103.045 20.2929C102.533 19.4389 101.803 19.013 100.856 19.013C99.876 19.013 99.1316 19.44 98.6205 20.2929C98.1825 20.9998 97.9664 21.8593 97.9664 22.8761C97.9664 23.8628 98.1825 24.709 98.6205 25.4136C99.1476 26.2676 99.884 26.6935 100.834 26.6935C101.765 26.6935 102.496 26.2587 103.023 25.3913C103.472 24.6722 103.699 23.8171 103.699 22.8315Z" fill="white"/>
<path d="M114.152 19.584C113.911 19.5405 113.653 19.5182 113.383 19.5182C112.526 19.5182 111.863 19.8337 111.396 20.4659C110.99 21.0233 110.787 21.7279 110.787 22.5786V28.1921H108.35L108.373 20.8628C108.373 19.6297 108.342 18.507 108.281 17.4947H110.405L110.494 19.5416H110.561C110.819 18.8381 111.225 18.2718 111.78 17.847C112.323 17.4646 112.91 17.2739 113.542 17.2739C113.768 17.2739 113.971 17.2895 114.152 17.3174V19.584Z" fill="white"/>
<path d="M125.054 22.3367C125.054 22.7626 125.026 23.1216 124.965 23.4148H117.651C117.68 24.4717 118.033 25.28 118.713 25.8375C119.329 26.3358 120.126 26.5856 121.105 26.5856C122.188 26.5856 123.176 26.4172 124.064 26.0794L124.446 27.7294C123.408 28.1709 122.182 28.3906 120.767 28.3906C119.066 28.3906 117.73 27.9023 116.758 26.9267C115.789 25.9512 115.303 24.6412 115.303 22.9978C115.303 21.3846 115.754 20.0411 116.659 18.9697C117.606 17.8258 118.885 17.2539 120.495 17.2539C122.077 17.2539 123.274 17.8258 124.087 18.9697C124.731 19.8784 125.054 21.0022 125.054 22.3367ZM122.73 21.7202C122.746 21.0156 122.587 20.4068 122.256 19.8929C121.834 19.2317 121.186 18.9017 120.313 18.9017C119.516 18.9017 118.868 19.2239 118.373 19.8706C117.967 20.3845 117.726 21.0011 117.651 21.7191H122.73V21.7202Z" fill="white"/>
<path d="M41.4595 4.22758C41.4595 5.53981 41.0559 6.52761 40.2497 7.19097C39.503 7.80304 38.4419 8.10964 37.0674 8.10964C36.3859 8.10964 35.8027 8.08065 35.3145 8.02268V0.852797C35.9514 0.752457 36.6375 0.701172 37.3784 0.701172C38.6877 0.701172 39.6745 0.97878 40.3401 1.534C41.0856 2.16168 41.4595 3.05917 41.4595 4.22758ZM40.196 4.25991C40.196 3.40925 39.965 2.75704 39.503 2.30216C39.0411 1.8484 38.3664 1.62096 37.4779 1.62096C37.1006 1.62096 36.7793 1.64549 36.5128 1.69677V7.14749C36.6603 7.16979 36.9302 7.17982 37.3224 7.17982C38.2395 7.17982 38.9473 6.9312 39.4459 6.43395C39.9444 5.93671 40.196 5.21203 40.196 4.25991Z" fill="white"/>
<path d="M48.1584 5.37397C48.1584 6.18227 47.9217 6.84451 47.4483 7.36405C46.952 7.89809 46.2945 8.16455 45.4735 8.16455C44.6822 8.16455 44.0521 7.90924 43.5821 7.39639C43.1133 6.88465 42.8789 6.23913 42.8789 5.46093C42.8789 4.64706 43.1202 3.97924 43.605 3.46081C44.0899 2.94239 44.7416 2.68262 45.5627 2.68262C46.3539 2.68262 46.9897 2.93793 47.4711 3.44966C47.9285 3.94691 48.1584 4.58908 48.1584 5.37397ZM46.9154 5.41188C46.9154 4.9269 46.8079 4.51104 46.5941 4.16431C46.3425 3.74511 45.9846 3.53551 45.5192 3.53551C45.0378 3.53551 44.6719 3.74511 44.4203 4.16431C44.2053 4.51104 44.099 4.93359 44.099 5.43306C44.099 5.91804 44.2065 6.33389 44.4203 6.68062C44.6799 7.09982 45.0412 7.30942 45.5078 7.30942C45.9652 7.30942 46.3242 7.09648 46.5826 6.66948C46.8045 6.31605 46.9154 5.89685 46.9154 5.41188Z" fill="white"/>
<path d="M57.142 2.78955L55.4554 8.04516H54.3576L53.659 5.76297C53.4817 5.19326 53.3376 4.6269 53.2256 4.06499H53.2039C53.0998 4.6425 52.9557 5.20775 52.7705 5.76297L52.0284 8.04516H50.918L49.332 2.78955H50.5636L51.173 5.28803C51.3205 5.87892 51.4418 6.44194 51.5389 6.97486H51.5607C51.6499 6.53559 51.7974 5.97592 52.0055 5.29918L52.7705 2.79067H53.747L54.48 5.24566C54.6572 5.84436 54.8013 6.42076 54.9122 6.97598H54.9454C55.0266 6.43525 55.1489 5.85885 55.3113 5.24566L55.9654 2.79067H57.142V2.78955Z" fill="white"/>
<path d="M63.3557 8.04518H62.1573V5.03497C62.1573 4.10738 61.796 3.64358 61.071 3.64358C60.7154 3.64358 60.4284 3.77068 60.2054 4.02599C59.9847 4.2813 59.8727 4.58232 59.8727 4.92682V8.04407H58.6743V4.29134C58.6743 3.82977 58.6594 3.32918 58.6309 2.78734H59.684L59.74 3.60902H59.7732C59.9127 3.35371 60.1208 3.143 60.3941 2.97465C60.7189 2.77843 61.0825 2.6792 61.4804 2.6792C61.9835 2.6792 62.402 2.83751 62.7348 3.15526C63.1487 3.54436 63.3557 4.12522 63.3557 4.89672V8.04518Z" fill="white"/>
<path d="M66.6601 8.04505H65.4629V0.37793H66.6601V8.04505Z" fill="white"/>
<path d="M73.715 5.37397C73.715 6.18227 73.4783 6.84451 73.0049 7.36405C72.5086 7.89809 71.85 8.16455 71.0301 8.16455C70.2377 8.16455 69.6076 7.90924 69.1388 7.39639C68.67 6.88465 68.4355 6.23913 68.4355 5.46093C68.4355 4.64706 68.6768 3.97924 69.1617 3.46081C69.6465 2.94239 70.2983 2.68262 71.1182 2.68262C71.9106 2.68262 72.5452 2.93793 73.0278 3.44966C73.4852 3.94691 73.715 4.58908 73.715 5.37397ZM72.4709 5.41188C72.4709 4.9269 72.3634 4.51104 72.1496 4.16431C71.8992 3.74511 71.5401 3.53551 71.0758 3.53551C70.5933 3.53551 70.2274 3.74511 69.977 4.16431C69.762 4.51104 69.6556 4.93359 69.6556 5.43306C69.6556 5.91804 69.7631 6.33389 69.977 6.68062C70.2365 7.09982 70.5979 7.30942 71.0644 7.30942C71.5218 7.30942 71.8797 7.09648 72.1381 6.66948C72.3611 6.31605 72.4709 5.89685 72.4709 5.41188Z" fill="white"/>
<path d="M79.5151 8.04525H78.4391L78.3499 7.43987H78.3167C77.9485 7.92262 77.4237 8.16455 76.7422 8.16455C76.2333 8.16455 75.8217 8.00512 75.5118 7.68849C75.2305 7.40085 75.0898 7.04296 75.0898 6.61819C75.0898 5.97601 75.3643 5.48657 75.9166 5.14765C76.4677 4.80872 77.243 4.6426 78.2413 4.6504V4.55229C78.2413 3.85994 77.8685 3.51433 77.1218 3.51433C76.5901 3.51433 76.1213 3.64477 75.7165 3.90343L75.4729 3.13638C75.9738 2.83424 76.5924 2.68262 77.3219 2.68262C78.7307 2.68262 79.4374 3.4073 79.4374 4.85666V6.79211C79.4374 7.31723 79.4637 7.73531 79.5151 8.04525ZM78.271 6.23913V5.4286C76.9491 5.4063 76.2882 5.75972 76.2882 6.48775C76.2882 6.76201 76.3637 6.96715 76.518 7.10428C76.6724 7.24142 76.8691 7.30942 77.1035 7.30942C77.3665 7.30942 77.6124 7.22804 77.8365 7.06638C78.0617 6.9036 78.2001 6.69735 78.2516 6.44427C78.2641 6.38741 78.271 6.31828 78.271 6.23913Z" fill="white"/>
<path d="M86.3234 8.04505H85.26L85.2039 7.20108H85.1708C84.8311 7.84326 84.2525 8.16435 83.4395 8.16435C82.79 8.16435 82.2492 7.91572 81.8204 7.41848C81.3916 6.92124 81.1777 6.27572 81.1777 5.48303C81.1777 4.63236 81.4099 3.94336 81.8764 3.41713C82.3281 2.92658 82.8815 2.6813 83.5402 2.6813C84.264 2.6813 84.7705 2.91877 85.0587 3.39483H85.0816V0.37793H86.2811V6.62914C86.2811 7.14087 86.2948 7.61247 86.3234 8.04505ZM85.0816 5.82864V4.95234C85.0816 4.80071 85.0701 4.67807 85.0484 4.58442C84.9809 4.30347 84.8357 4.06711 84.615 3.87647C84.3921 3.68582 84.1233 3.58994 83.8134 3.58994C83.3663 3.58994 83.0164 3.76275 82.7592 4.10948C82.5042 4.45621 82.375 4.89882 82.375 5.43955C82.375 5.95909 82.4973 6.38052 82.7432 6.70495C83.0027 7.05057 83.3526 7.22338 83.7906 7.22338C84.1839 7.22338 84.4984 7.07955 84.7374 6.7908C84.9684 6.52434 85.0816 6.20325 85.0816 5.82864Z" fill="white"/>
<path d="M96.5724 5.37397C96.5724 6.18227 96.3357 6.84451 95.8623 7.36405C95.366 7.89809 94.7097 8.16455 93.8875 8.16455C93.0974 8.16455 92.4673 7.90924 91.9962 7.39639C91.5274 6.88465 91.293 6.23913 91.293 5.46093C91.293 4.64706 91.5342 3.97924 92.0191 3.46081C92.5039 2.94239 93.1557 2.68262 93.9779 2.68262C94.768 2.68262 95.4049 2.93793 95.8852 3.44966C96.3426 3.94691 96.5724 4.58908 96.5724 5.37397ZM95.3306 5.41188C95.3306 4.9269 95.2231 4.51104 95.0093 4.16431C94.7566 3.74511 94.3998 3.53551 93.9333 3.53551C93.453 3.53551 93.0871 3.74511 92.8344 4.16431C92.6194 4.51104 92.5131 4.93359 92.5131 5.43306C92.5131 5.91804 92.6205 6.33389 92.8344 6.68062C93.0939 7.09982 93.4553 7.30942 93.9218 7.30942C94.3792 7.30942 94.7394 7.09648 94.9978 6.66948C95.2185 6.31605 95.3306 5.89685 95.3306 5.41188Z" fill="white"/>
<path d="M103.017 8.04518H101.819V5.03497C101.819 4.10738 101.458 3.64358 100.732 3.64358C100.376 3.64358 100.089 3.77068 99.8675 4.02599C99.6457 4.2813 99.5348 4.58232 99.5348 4.92682V8.04407H98.3353V4.29134C98.3353 3.82977 98.3216 3.32918 98.293 2.78734H99.345L99.401 3.60902H99.4342C99.5748 3.35371 99.7829 3.143 100.055 2.97465C100.381 2.77843 100.743 2.6792 101.143 2.6792C101.645 2.6792 102.063 2.83751 102.396 3.15526C102.811 3.54436 103.017 4.12522 103.017 4.89672V8.04518Z" fill="white"/>
<path d="M111.082 3.66454H109.762V6.21765C109.762 6.86652 109.997 7.19095 110.461 7.19095C110.676 7.19095 110.854 7.17312 110.995 7.13632L111.026 8.02266C110.789 8.10963 110.478 8.15311 110.095 8.15311C109.622 8.15311 109.253 8.01263 108.987 7.73168C108.719 7.45072 108.587 6.97801 108.587 6.31465V3.66454H107.799V2.78935H108.587V1.82609L109.761 1.48047V2.78824H111.081V3.66454H111.082Z" fill="white"/>
<path d="M117.426 8.04505H116.226V5.05714C116.226 4.11505 115.865 3.64345 115.141 3.64345C114.585 3.64345 114.206 3.9166 113.997 4.4629C113.962 4.57773 113.941 4.71821 113.941 4.88321V8.04394H112.744V0.37793H113.941V3.54534H113.964C114.342 2.96894 114.882 2.6813 115.583 2.6813C116.08 2.6813 116.49 2.83961 116.816 3.15736C117.222 3.55315 117.426 4.14181 117.426 4.92001V8.04505Z" fill="white"/>
<path d="M123.97 5.16861C123.97 5.37821 123.954 5.55436 123.925 5.69818H120.332C120.348 6.21772 120.519 6.61351 120.852 6.88777C121.156 7.13305 121.548 7.25569 122.028 7.25569C122.56 7.25569 123.045 7.17319 123.482 7.00707L123.669 7.81871C123.158 8.035 122.557 8.14314 121.86 8.14314C121.026 8.14314 120.368 7.90344 119.892 7.42404C119.414 6.94463 119.178 6.30134 119.178 5.49416C119.178 4.70147 119.398 4.04145 119.843 3.51522C120.307 2.95332 120.935 2.67236 121.728 2.67236C122.503 2.67236 123.092 2.95332 123.49 3.51522C123.811 3.96118 123.97 4.51305 123.97 5.16861ZM122.827 4.86647C122.836 4.51974 122.757 4.22095 122.594 3.96898C122.386 3.64455 122.07 3.48178 121.641 3.48178C121.25 3.48178 120.931 3.64009 120.687 3.95784C120.488 4.21092 120.37 4.51305 120.332 4.86647H122.827Z" fill="white"/>
</svg>
