<svg width="133" height="31" viewBox="0 0 133 31" fill="none" xmlns="http://www.w3.org/2000/svg">
<path d="M42.7597 3.86607C42.7597 4.797 42.4742 5.54259 41.9118 6.09864C41.2652 6.75782 40.423 7.0895 39.391 7.0895C38.4047 7.0895 37.5625 6.75225 36.8717 6.08749C36.1794 5.41298 35.834 4.58517 35.834 3.59431C35.834 2.60345 36.1794 1.77564 36.8717 1.10671C37.5625 0.436377 38.4047 0.0991211 39.391 0.0991211C39.8821 0.0991211 40.3502 0.198068 40.797 0.382025C41.2423 0.567376 41.6049 0.818227 41.8675 1.12761L41.2709 1.71572C40.8127 1.18754 40.1889 0.92693 39.391 0.92693C38.6716 0.92693 38.0479 1.17221 37.5183 1.66694C36.9944 2.16307 36.7318 2.80552 36.7318 3.59431C36.7318 4.3831 36.9944 5.03113 37.5183 5.52726C38.0479 6.01642 38.6716 6.26727 39.391 6.26727C40.1547 6.26727 40.797 6.01642 41.3037 5.52168C41.6377 5.19418 41.8276 4.74265 41.8775 4.16569H39.391V3.36018H42.7083C42.7482 3.53439 42.7597 3.70301 42.7597 3.86607Z" fill="white" stroke="white" stroke-width="0.16" stroke-miterlimit="10"/>
<path d="M48.0235 1.07328H44.9075V3.19158H47.7166V3.99709H44.9075V6.11538H48.0235V6.93623H44.0254V0.252441H48.0235V1.07328Z" fill="white" stroke="white" stroke-width="0.16" stroke-miterlimit="10"/>
<path d="M51.7368 6.93623H50.8546V1.07328H48.9434V0.252441H53.6494V1.07328H51.7368V6.93623Z" fill="white" stroke="white" stroke-width="0.16" stroke-miterlimit="10"/>
<path d="M57.0547 6.93623V0.252441H57.9354V6.93623H57.0547Z" fill="white" stroke="white" stroke-width="0.16" stroke-miterlimit="10"/>
<path d="M61.8403 6.93623H60.9653V1.07328H59.0469V0.252441H63.7587V1.07328H61.8403V6.93623Z" fill="white" stroke="white" stroke-width="0.16" stroke-miterlimit="10"/>
<path d="M72.6683 6.07634C71.9932 6.75225 71.1567 7.0895 70.159 7.0895C69.1555 7.0895 68.3191 6.75225 67.6439 6.07634C66.9702 5.40183 66.6348 4.57402 66.6348 3.59431C66.6348 2.6146 66.9702 1.78679 67.6439 1.11228C68.3191 0.436377 69.1555 0.0991211 70.159 0.0991211C71.151 0.0991211 71.9875 0.436376 72.6626 1.11785C73.3421 1.79794 73.6775 2.62017 73.6775 3.59431C73.6775 4.57402 73.3421 5.40183 72.6683 6.07634ZM68.2962 5.51611C68.8044 6.01642 69.4224 6.26727 70.159 6.26727C70.8898 6.26727 71.5136 6.01642 72.016 5.51611C72.5227 5.0158 72.7797 4.37334 72.7797 3.59431C72.7797 2.81528 72.5227 2.17282 72.016 1.67252C71.5136 1.17221 70.8898 0.921355 70.159 0.921355C69.4224 0.921355 68.8044 1.17221 68.2962 1.67252C67.7895 2.17282 67.5326 2.81528 67.5326 3.59431C67.5326 4.37334 67.7895 5.0158 68.2962 5.51611Z" fill="white" stroke="white" stroke-width="0.16" stroke-miterlimit="10"/>
<path d="M74.9141 6.93623V0.252441H75.9846L79.3133 5.45063H79.3518L79.3133 4.16572V0.252441H80.194V6.93623H79.2747L75.789 1.48161H75.7505L75.789 2.7721V6.93623H74.9141Z" fill="white" stroke="white" stroke-width="0.16" stroke-miterlimit="10"/>
<path d="M66.4185 16.6969C63.7365 16.6969 61.5454 18.6898 61.5454 21.4394C61.5454 24.1667 63.7365 26.1805 66.4185 26.1805C69.1063 26.1805 71.2973 24.1667 71.2973 21.4394C71.2973 18.6898 69.1063 16.6969 66.4185 16.6969ZM66.4185 24.313C64.9469 24.313 63.6808 23.1271 63.6808 21.4394C63.6808 19.7294 64.9469 18.5644 66.4185 18.5644C67.8902 18.5644 69.162 19.7294 69.162 21.4394C69.162 23.1271 67.8902 24.313 66.4185 24.313ZM55.7859 16.6969C53.0982 16.6969 50.9128 18.6898 50.9128 21.4394C50.9128 24.1667 53.0982 26.1805 55.7859 26.1805C58.4723 26.1805 60.659 24.1667 60.659 21.4394C60.659 18.6898 58.4723 16.6969 55.7859 16.6969ZM55.7859 24.313C54.3129 24.313 53.0425 23.1271 53.0425 21.4394C53.0425 19.7294 54.3129 18.5644 55.7859 18.5644C57.2576 18.5644 58.5237 19.7294 58.5237 21.4394C58.5237 23.1271 57.2576 24.313 55.7859 24.313ZM43.1336 18.1505V20.1656H48.0623C47.9182 21.2917 47.5328 22.1195 46.9418 22.6965C46.2224 23.3933 45.1019 24.1667 43.1336 24.1667C40.1004 24.1667 37.7252 21.7767 37.7252 18.8152C37.7252 15.8538 40.1004 13.4637 43.1336 13.4637C44.7736 13.4637 45.9669 14.0895 46.8476 14.9006L48.3021 13.4805C47.0703 12.3321 45.4317 11.45 43.1336 11.45C38.9742 11.45 35.4785 14.7542 35.4785 18.8152C35.4785 22.8762 38.9742 26.1805 43.1336 26.1805C45.3817 26.1805 47.0703 25.4614 48.3978 24.1124C49.7581 22.7842 50.182 20.9168 50.182 19.4089C50.182 18.9407 50.142 18.51 50.0707 18.1505H43.1336ZM94.8706 19.7127C94.4695 18.6522 93.232 16.6969 90.7112 16.6969C88.2133 16.6969 86.1336 18.6187 86.1336 21.4394C86.1336 24.0956 88.1919 26.1805 90.951 26.1805C93.182 26.1805 94.4695 24.8524 94.9991 24.0789L93.3433 23.0017C92.7909 23.7904 92.0387 24.313 90.951 24.313C89.8705 24.313 89.0954 23.8295 88.5987 22.8762L95.0947 20.252L94.8706 19.7127ZM88.2475 21.2917C88.1919 19.4633 89.702 18.5268 90.784 18.5268C91.6319 18.5268 92.3513 18.9407 92.5911 19.5329L88.2475 21.2917ZM82.9676 25.892H85.103V11.9558H82.9676V25.892ZM79.4705 17.7533H79.3992C78.9196 17.1986 78.0046 16.6969 76.8456 16.6969C74.4133 16.6969 72.1894 18.7818 72.1894 21.4547C72.1894 24.1124 74.4133 26.1805 76.8456 26.1805C78.0046 26.1805 78.9196 25.6746 79.3992 25.1032H79.4705V25.7833C79.4705 27.5964 78.4785 28.5705 76.8784 28.5705C75.5738 28.5705 74.7645 27.6508 74.4304 26.8773L72.5734 27.634C73.1087 28.8911 74.5261 30.438 76.8784 30.438C79.382 30.438 81.4946 28.9998 81.4946 25.5004V16.9854H79.4705V17.7533ZM77.0283 24.313C75.5566 24.313 74.3248 23.1104 74.3248 21.4547C74.3248 19.7838 75.5566 18.5644 77.0283 18.5644C78.4785 18.5644 79.6218 19.7838 79.6218 21.4547C79.6218 23.1104 78.4785 24.313 77.0283 24.313ZM104.868 11.9558H99.7608V25.892H101.89V20.6116H104.868C107.233 20.6116 109.553 18.9407 109.553 16.283C109.553 13.6268 107.227 11.9558 104.868 11.9558ZM104.924 18.6731H101.89V13.8944H104.924C106.514 13.8944 107.422 15.1835 107.422 16.283C107.422 17.3617 106.514 18.6731 104.924 18.6731ZM118.088 16.6705C116.55 16.6705 114.95 17.3338 114.292 18.8041L116.181 19.5775C116.588 18.8041 117.336 18.5532 118.127 18.5532C119.232 18.5532 120.352 19.2013 120.369 20.3454V20.4917C119.984 20.2743 119.159 19.9524 118.144 19.9524C116.109 19.9524 114.035 21.0464 114.035 23.0881C114.035 24.9555 115.702 26.1582 117.576 26.1582C119.009 26.1582 119.8 25.5269 120.297 24.7924H120.369V25.8697H122.426V20.5238C122.426 18.0529 120.536 16.6705 118.088 16.6705ZM117.832 24.3075C117.135 24.3075 116.164 23.9702 116.164 23.1271C116.164 22.0484 117.375 21.6345 118.422 21.6345C119.36 21.6345 119.8 21.8366 120.369 22.1028C120.202 23.3933 119.065 24.3075 117.832 24.3075ZM129.92 16.9757L127.472 23.017H127.399L124.869 16.9757H122.572L126.374 25.4182L124.205 30.1161H126.43L132.29 16.9757H129.92ZM110.723 25.892H112.859V11.9558H110.723V25.892Z" fill="white"/>
<path d="M0.529559 0.850029C0.194123 1.19286 0 1.72661 0 2.41785V27.0737C0 27.765 0.194123 28.2987 0.529559 28.6415L0.612348 28.7168L14.7634 14.9061V14.5799L0.612348 0.769201L0.529559 0.850029Z" fill="url(#paint0_linear_1321_19389)"/>
<path d="M19.4755 19.5122L14.7637 14.9063V14.5802L19.4812 9.97429L19.5868 10.0342L25.1736 13.1378C26.768 14.0186 26.768 15.4679 25.1736 16.3543L19.5868 19.4523L19.4755 19.5122Z" fill="url(#paint1_linear_1321_19389)"/>
<path d="M19.5863 19.4521L14.7632 14.7431L0.529297 28.6416C1.05886 29.1851 1.92242 29.2506 2.90447 28.7071L19.5863 19.4521Z" fill="url(#paint2_linear_1321_19389)"/>
<path d="M19.5863 10.0341L2.90447 0.779128C1.92242 0.241191 1.05886 0.30669 0.529297 0.8502L14.7632 14.7432L19.5863 10.0341Z" fill="url(#paint3_linear_1321_19389)"/>
<defs>
<linearGradient id="paint0_linear_1321_19389" x1="13.507" y1="27.3305" x2="-5.19823" y2="8.17201" gradientUnits="userSpaceOnUse">
<stop stop-color="#00A0FF"/>
<stop offset="0.0066" stop-color="#00A1FF"/>
<stop offset="0.2601" stop-color="#00BEFF"/>
<stop offset="0.5122" stop-color="#00D2FF"/>
<stop offset="0.7604" stop-color="#00DFFF"/>
<stop offset="1" stop-color="#00E3FF"/>
</linearGradient>
<linearGradient id="paint1_linear_1321_19389" x1="27.2498" y1="14.7417" x2="-0.380889" y2="14.7417" gradientUnits="userSpaceOnUse">
<stop stop-color="#FFE000"/>
<stop offset="0.4087" stop-color="#FFBD00"/>
<stop offset="0.7754" stop-color="#FFA500"/>
<stop offset="1" stop-color="#FF9C00"/>
</linearGradient>
<linearGradient id="paint2_linear_1321_19389" x1="16.9636" y1="12.1832" x2="-8.40216" y2="-13.7973" gradientUnits="userSpaceOnUse">
<stop stop-color="#FF3A44"/>
<stop offset="1" stop-color="#C31162"/>
</linearGradient>
<linearGradient id="paint3_linear_1321_19389" x1="-3.05367" y1="36.8446" x2="8.2733" y2="25.2433" gradientUnits="userSpaceOnUse">
<stop stop-color="#32A071"/>
<stop offset="0.0685" stop-color="#2DA771"/>
<stop offset="0.4762" stop-color="#15CF74"/>
<stop offset="0.8009" stop-color="#06E775"/>
<stop offset="1" stop-color="#00F076"/>
</linearGradient>
</defs>
</svg>
